<?xml version="1.0" encoding="utf-8"?>
<!-- Generator: Adobe Illustrator 23.1.0, SVG Export Plug-In . SVG Version: 6.00 Build 0)  -->
<svg version="1.1" id="Layer_1" xmlns="http://www.w3.org/2000/svg" x="0px" y="0px"
	 viewBox="0 0 2800 2000" style="enable-background:new 0 0 2800 2000;" xml:space="preserve">
<!--ADDS THE COLOR TO TEXT-->
	<!--<style type="text/css">-->
<!--	.st0{fill:url(#SVGID_1_);}-->
<!--	.st1{fill:url(#SVGID_2_);}-->
<!--	.st2{fill:url(#SVGID_3_);}-->
<!--	.st3{fill:url(#SVGID_4_);}-->
<!--	.st4{fill:url(#SVGID_5_);}-->
<!--	.st5{fill:#006CBD;}-->
<!--	.st6{fill:url(#SVGID_6_);}-->
<!--	.st7{fill-rule:evenodd;clip-rule:evenodd;fill:url(#SVGID_7_);}-->
<!--	.st8{fill:#F7941D;}-->
<!--	.st9{fill:url(#SVGID_8_);}-->
<!--	.st10{fill:url(#SVGID_9_);}-->
<!--	.st11{fill:url(#SVGID_10_);}-->
<!--	.st12{fill:url(#SVGID_11_);}-->
<!--	.st13{fill:url(#SVGID_12_);}-->
<!--	.st14{fill:url(#SVGID_13_);}-->
<!--	.st15{fill:url(#SVGID_14_);}-->
<!--	.st16{fill:url(#SVGID_15_);}-->
<!--	.st17{fill:url(#SVGID_16_);}-->
<!--	.st18{fill:url(#SVGID_17_);}-->
<!--	.st19{fill:url(#SVGID_18_);}-->
<!--	.st20{fill:url(#SVGID_19_);}-->
<!--	.st21{fill:url(#SVGID_20_);}-->
<!--	.st22{fill:url(#SVGID_21_);}-->
<!--	.st23{fill:url(#SVGID_22_);}-->
<!--	.st24{fill:url(#SVGID_23_);}-->
<!--	.st25{fill:url(#SVGID_24_);}-->
<!--	.st26{fill:url(#SVGID_25_);}-->
<!--	.st27{fill:url(#SVGID_26_);}-->
<!--	.st28{fill:url(#SVGID_27_);}-->
<!--	.st29{fill:url(#SVGID_28_);}-->
<!--</style>-->
<g>
	<g>
		<g>
			<g>
				<g>
					<g>
						<linearGradient id="SVGID_1_" gradientUnits="userSpaceOnUse" x1="618.9356" y1="889.3447" x2="618.9356" y2="1402.8752">
							<stop  offset="0" style="stop-color:#FFF33B"/>
							<stop  offset="0.0401" style="stop-color:#FEE72E"/>
							<stop  offset="0.1171" style="stop-color:#FED51B"/>
							<stop  offset="0.1964" style="stop-color:#FDCA10"/>
							<stop  offset="0.2809" style="stop-color:#FDC70C"/>
							<stop  offset="0.6685" style="stop-color:#F3903F"/>
							<stop  offset="0.8876" style="stop-color:#ED683C"/>
							<stop  offset="1" style="stop-color:#E93E3A"/>
						</linearGradient>
						<path class="st0" d="M673.73,1077.51c-0.08-0.02-0.16-0.04-0.23-0.08c-0.93-0.35-1.89-0.7-2.84-1.03h-0.02l-0.12-0.06
							c-3.07-1.05-6.18-2.02-9.33-2.9c-1.01-0.29-2.08-0.6-3.17-0.89c-34.32-8.1-85.35-4.49-85.35-4.49
							c-0.21,0.02-0.43,0.08-0.62,0.12c-3.46,1.22-17.24,15.39-15,16.42c9.11-2.64,49.96-10.92,96.45-1.03
							c21.07,6.3,40.52,19.86,40.52,44.99c0,21.69-13.78,76.39-78.42,104.77c-6.88,3.03-14.38,5.46-21.88,7.29
							c-34.84,8.3-73.54,5.46-81.45,4.04c-0.6,2.64,5.07,8.32,8.3,9.74c2.04,1.01,15.41,4.86,35.06,4.45
							c24.12-0.41,56.94-4.66,86.73-18.44c60.58-28.16,83.27-72.33,83.27-99.68C725.64,1107.57,702.38,1088.22,673.73,1077.51z"/>
						<linearGradient id="SVGID_2_" gradientUnits="userSpaceOnUse" x1="769.8027" y1="889.3447" x2="769.8027" y2="1402.8752">
							<stop  offset="0" style="stop-color:#FFF33B"/>
							<stop  offset="0.0401" style="stop-color:#FEE72E"/>
							<stop  offset="0.1171" style="stop-color:#FED51B"/>
							<stop  offset="0.1964" style="stop-color:#FDCA10"/>
							<stop  offset="0.2809" style="stop-color:#FDC70C"/>
							<stop  offset="0.6685" style="stop-color:#F3903F"/>
							<stop  offset="0.8876" style="stop-color:#ED683C"/>
							<stop  offset="1" style="stop-color:#E93E3A"/>
						</linearGradient>
						<path class="st1" d="M802.01,1122.69c-8.1,0-41.12,39.1-52.06,62.6c9.52-24.1,20.46-46.8,23.5-47.2
							c0.21-1.83-12.96-9.72-20.27-9.72c-1.42,0-2.84,0.41-3.44,1.42c-15.2,21.07-38.69,87.72-38.69,96.84
							c0,5.48,13.97,15.82,23.09,17.43c-0.19-0.6-0.39-2.02-0.39-3.03c0-8.92,11.14-31.62,16.4-41.14
							c14.38-25.92,33.64-49.23,50.66-64.64c-2.23,9.93-6.3,33.83-5.48,38.3c0.21,1.42,4.47,3.63,6.08,3.25
							c1.01-1.03,7.5-11.56,13.97-20.68c6.08-8.51,12.36-16.81,13.18-18.44C827.74,1133.23,813.17,1122.69,802.01,1122.69z"/>
						<linearGradient id="SVGID_3_" gradientUnits="userSpaceOnUse" x1="852.0561" y1="889.3447" x2="852.0561" y2="1402.8752">
							<stop  offset="0" style="stop-color:#FFF33B"/>
							<stop  offset="0.0401" style="stop-color:#FEE72E"/>
							<stop  offset="0.1171" style="stop-color:#FED51B"/>
							<stop  offset="0.1964" style="stop-color:#FDCA10"/>
							<stop  offset="0.2809" style="stop-color:#FDC70C"/>
							<stop  offset="0.6685" style="stop-color:#F3903F"/>
							<stop  offset="0.8876" style="stop-color:#ED683C"/>
							<stop  offset="1" style="stop-color:#E93E3A"/>
						</linearGradient>
						<path class="st2" d="M898.06,1190.77c-1.17,1.17-2.33,2.31-3.5,3.42c-23.79,22.83-47.79,36.09-60.32,36.09
							c-3.65,0-6.49-3.25-6.49-8.92c0-7.7,2.64-17.63,6.9-27.95c2.84,0,8.71,0.6,15.39-1.03c19.65-4.45,53.29-25.92,53.29-40.52
							c0-16.21-16.62-28.76-33.64-28.76c-30.59,0-68.89,60.79-68.89,93.4c0,12.96,17.43,28.57,34.24,28.57
							c15.12,0,40.87-20.5,54.96-36.17c3.85-4.28,6.82-8.2,8.47-11.23C899.07,1196.25,900.29,1190.96,898.06,1190.77z
							 M878.82,1136.26c3.23,0,4.64,3.05,3.44,8.32c-4.06,17.41-21.09,32.22-31,36.67c-4.88,2.23-7.72,2.43-12.36,2.84
							C850.44,1160.38,868.89,1136.26,878.82,1136.26z"/>
						<linearGradient id="SVGID_4_" gradientUnits="userSpaceOnUse" x1="951.8484" y1="889.3447" x2="951.8484" y2="1402.8752">
							<stop  offset="0" style="stop-color:#FFF33B"/>
							<stop  offset="0.0401" style="stop-color:#FEE72E"/>
							<stop  offset="0.1171" style="stop-color:#FED51B"/>
							<stop  offset="0.1964" style="stop-color:#FDCA10"/>
							<stop  offset="0.2809" style="stop-color:#FDC70C"/>
							<stop  offset="0.6685" style="stop-color:#F3903F"/>
							<stop  offset="0.8876" style="stop-color:#ED683C"/>
							<stop  offset="1" style="stop-color:#E93E3A"/>
						</linearGradient>
						<path class="st3" d="M994.7,1128.37c-1.21,0-2.62,1.2-3.25,1.83c-2.02,2.22-5.05,6.88-8.3,13.16
							c-5.48-13.56-20.68-18.64-33.64-18.64c-8.32,0-19.45,9.11-29.17,22.1c-10.2,13.64-19.82,31.44-25.79,47.38
							c-1.94,5.17-3.5,10.14-4.57,14.71c-1.09,4.57-1.67,8.73-1.67,12.26c0,10.94,18.85,24.31,33.45,24.31
							c4.45,0,22.08-25.13,40.33-52.88c-3.46,8.51-11.76,32.22-11.76,37.68c0,5.48,15.61,15.8,24.72,17.43
							c-0.41-1.01-0.62-2.64-0.62-4.47c0.21-8.1,5.07-22.89,10.96-39.7c4.24-11.95,10.12-27.97,19.84-48.43
							c2.84-5.87,7.72-15,10.14-16.42C1014.97,1136.26,1001.99,1128.15,994.7,1128.37z M917.1,1231.29c-1.42,0-2.43-1.61-2.43-3.44
							c-0.62-23.71,32.61-88.54,50.64-88.54c6.69,0,9.74,6.06,11.76,12.15C959.45,1181.44,924.19,1231.29,917.1,1231.29z"/>
						<linearGradient id="SVGID_5_" gradientUnits="userSpaceOnUse" x1="1079.5867" y1="889.3447" x2="1079.5867" y2="1402.8752">
							<stop  offset="0" style="stop-color:#FFF33B"/>
							<stop  offset="0.0401" style="stop-color:#FEE72E"/>
							<stop  offset="0.1171" style="stop-color:#FED51B"/>
							<stop  offset="0.1964" style="stop-color:#FDCA10"/>
							<stop  offset="0.2809" style="stop-color:#FDC70C"/>
							<stop  offset="0.6685" style="stop-color:#F3903F"/>
							<stop  offset="0.8876" style="stop-color:#ED683C"/>
							<stop  offset="1" style="stop-color:#E93E3A"/>
						</linearGradient>
						<path class="st4" d="M1165.1,1139.31c-0.6-3.65-17-16.42-24.1-13.78c-15.2,5.67-43.57,44.37-57.35,69.5
							c6.28-18.03,14.19-38.09,22.48-54.92c-1.01-4.45-16.81-15.39-24.1-12.96c-11.97,4.06-34.26,33.45-49.85,58.55
							c9.52-24.31,20.46-47.2,23.5-47.4c0.19-1.83-12.15-9.93-19.45-9.93c-1.42,0-2.84,0.41-3.44,1.42
							c-15.2,21.07-38.71,87.72-38.71,96.84c0,5.48,13.18,15.82,22.29,17.43c-0.19-0.82-0.19-2.23-0.19-3.25
							c0-9.31,16.4-38.09,20.27-44.56c12.55-21.69,33.62-48.84,44.37-56.14c-16.42,29.19-31.21,81.06-31.21,86.13
							c0,5.46,14.4,15.99,23.51,17.63c-0.21-0.21-0.41-1.01-0.41-2.04c0-9.11,14.19-35.04,20.87-45.98
							c13.16-21.88,29.99-43.16,44.58-55.33c-9.93,17.43-34.24,74.98-34.24,89.57c0,5.46,16.4,15.99,25.52,17.63
							C1121.93,1242.04,1157.61,1153.88,1165.1,1139.31z"/>
						<path class="st5" d="M1581.4,1080.17c-3.33-0.08-6.65-0.41-9.97-0.64l-9.98-0.76c-0.52-0.06-1.06-0.12-1.57-0.17
							c-8.04,10.4-19.7,29.48-37.12,59.35c-20.25,35.06-46.1,86.73-57.62,113.47c-1.76-10.94-1.22-39.7,0.87-68.27
							c3.32-42.56,9.6-86.54,12.4-86.93c-0.35-4.06-20.44-12.77-23.4-8.73c-4.72,7.31-12.4,67.07-14.49,104.15
							c-1.22,21.88-2.11,63.63,2.26,71.73c4.89,8.51,19.92,12.57,27.42,11.76c-5.06-2.84,34.58-77.19,54.84-112.25
							c23.87-41.43,49.73-77.29,58.35-82.63C1582.73,1080.21,1582.06,1080.19,1581.4,1080.17z"/>
						<path class="st5" d="M1615.83,1128.37c-1.04,0-2.26,1.2-2.8,1.83c-1.74,2.22-4.36,6.88-7.15,13.16
							c-4.72-13.56-17.81-18.64-29-18.64c-7.15,0-16.77,9.11-25.14,22.1c-14.51,22.48-27.59,56.32-27.59,74.35
							c0,10.94,16.23,24.31,28.81,24.31c3.84,0,19.03-25.13,34.76-52.88c-2.98,8.51-10.13,32.22-10.13,37.68
							c0,5.48,13.45,15.8,21.31,17.43c-0.35-1.01-0.52-2.64-0.52-4.47c0.17-8.1,4.36-22.89,9.43-39.7
							c3.67-11.95,8.73-27.97,17.1-48.43c2.45-5.87,6.65-15,8.74-16.42C1633.3,1136.26,1622.12,1128.15,1615.83,1128.37z
							 M1548.94,1231.29c-1.22,0-2.09-1.61-2.09-3.44c-0.52-23.71,28.13-88.54,43.67-88.54c5.76,0,8.38,6.06,10.12,12.15
							C1585.44,1181.44,1555.05,1231.29,1548.94,1231.29z"/>
						<path class="st5" d="M1697.39,1189.95c-0.8,1.03-1.62,2.04-2.45,3.05c-17.3,21.05-39.11,37.27-49.95,37.27
							c-3.13,0-5.58-3.25-5.58-8.92c0-7.7,1.91-17.82,9.6-37.27c8.73-22.1,26.03-47.61,34.06-47.01c2.28,0.19,3.32,3.03,3.32,7.09
							c0,9.33-1.74,17.43-2.61,24.12c-0.18,1.42,0.35,2.22,1.74,2.22c1.41,0,17.29-15.59,17.64-24.1
							c-1.74-13.99-16.77-22.1-27.07-23.11c-26.72-2.23-59.9,62.21-59.9,93.2c0,12.96,15.03,28.57,29.52,28.57
							c12.9,0,33.82-22.29,45.21-37.55c3.25-4.35,5.73-8.14,7-10.67C1698.61,1195.43,1699.31,1189.95,1697.39,1189.95z"/>
						<path class="st5" d="M1792.17,1132.62h-0.02c-3.65-2.33-8.09-4.37-11.27-4.26c-1.06,0-2.28,1.2-2.8,1.83
							c-1.74,2.22-4.37,6.88-7.17,13.16c-4.71-13.56-17.81-18.64-29-18.64c-7.15,0-16.75,9.11-25.14,22.1
							c-8.58,13.29-16.65,30.57-21.83,46.19c-1.69,5.09-3.07,9.99-4.04,14.52c-1.12,5.11-1.73,9.74-1.73,13.64
							c0,10.94,16.23,24.31,28.81,24.31c3.84,0,19.05-25.13,34.76-52.88c-2.96,8.51-10.13,32.22-10.13,37.68
							c0,5.48,13.45,15.8,21.31,17.43c-0.35-1.01-0.52-2.64-0.52-4.47c0.17-8.1,4.37-22.89,9.43-39.7
							c3.67-11.95,8.73-27.97,17.12-48.43c1.49-3.58,3.63-8.36,5.54-11.87c1.24-2.25,2.38-3.98,3.18-4.55
							C1798.52,1137.5,1795.7,1134.92,1792.17,1132.62z M1713.97,1231.29c-1.22,0-2.09-1.61-2.09-3.44
							c-0.52-23.71,28.13-88.54,43.67-88.54c5.76,0,8.38,6.06,10.12,12.15C1750.47,1181.44,1720.09,1231.29,1713.97,1231.29z"/>
						<path class="st5" d="M1870.82,1129.79c-1.96-0.14-4.05-0.29-6.23-0.43c-7.3-0.45-15.71-0.84-24.34-0.99
							c3.32-8.32,5.95-15,7.69-18.64c2.61-5.89,6.63-15,8.73-16.42c-0.33-1.83-11.01-9.93-17.29-9.74c-1.04,0-2.45,1.22-2.97,2.04
							c-2.63,3.25-7.17,13.16-10.84,21.67c-2.26,5.07-5.41,12.77-8.73,20.87c-8.21,0.21-15.9,0.82-21.83,1.63
							c-0.87,0.54-1.86,1.55-2.85,2.84h-0.02c-3.42,4.39-6.95,11.85-5.86,13.56c2.46-1.11,5.6-2.1,9.21-2.95
							c4.84-1.17,10.54-2.1,16.63-2.92c-3.5,8.92-6.65,17.43-8.91,23.71c-13.28,36.26-20.27,61.99-20.27,66.46
							c0.18,5.46,13.1,15.59,21.14,17.22c-2.28-6.08,1.93-20.06,7.86-40.52c5.24-18.03,15.73-46.82,24.46-69.11
							c8.96-0.58,17.37-0.76,23.44-0.8c2.45-0.02,4.52-0.02,6.08-0.02C1867.85,1135.85,1872.04,1130.99,1870.82,1129.79z"/>
						<path class="st5" d="M1867.31,1127.96c-1.01,0-2.01,0.68-2.73,1.4c-0.15,0.14-0.3,0.29-0.42,0.43
							c-1.12,1.4-2.63,4.06-4.32,7.5c-1.96,4-4.17,9.04-6.33,14.38c-9.77,24.31-12.75,35.25-16.58,47.2
							c-5.24,16.42-8.39,29.17-8.39,31.21c0,5.46,13.64,15.99,21.49,17.63c-2.09-6.08,4.02-27.15,10.3-47.61
							c3.67-11.97,8.04-24.93,16.06-45.59c2.28-6.08,6.63-15,8.74-16.42C1884.95,1136.26,1873.43,1127.75,1867.31,1127.96z
							 M1889.68,1080.74c-7.69,0-14.86,7.31-16.08,16.23c-1.39,8.9,3.85,15.99,11.54,15.99c7.67,0,15.01-7.09,16.23-15.99
							C1902.59,1088.04,1897.35,1080.74,1889.68,1080.74z"/>
						<path class="st5" d="M1938.58,1125.72h-1.06c-2.61-1.01-5.23-2.43-8.9-2.43c-25.33,0-59.57,52.47-59.57,89.96
							c0,19.26,15.9,31.81,31.09,31.81c26.38,0,59.38-53.29,59.38-94.62C1959.53,1142.94,1949.75,1125.72,1938.58,1125.72z
							 M1897.7,1232.92c-4.89,0-6.28-5.67-6.28-10.75c0-30.18,29-88.35,44.88-88.35c3.32,0,3.67,7.5,3.67,9.74
							C1939.28,1166.46,1912.38,1232.92,1897.7,1232.92z"/>
						<path class="st5" d="M2055.06,1139.31c-0.52-3.25-12.4-14.19-19.03-14.19c-8.39,0-21.49,14.79-26.9,21.88
							c-11.01,14.19-23.05,34.05-30.22,50.86c8.91-28.16,21.31-59.37,24.27-59.78c0.18-1.83-11.17-9.72-17.45-9.72
							c-1.22,0-2.45,0.41-2.96,1.42c-13.1,21.07-33.37,87.72-33.37,96.84c0,5.48,12.06,15.82,19.92,17.43
							c-0.18-0.6-0.35-2.02-0.35-3.03c0-18.03,41.39-82.67,53.97-95.65c3.84-3.85,6.8-6.28,8.9-4.86
							c-8.56,17.43-29.52,74.98-29.52,89.57c0,5.46,14.15,15.99,22.01,17.63C2017.86,1242.04,2048.6,1153.88,2055.06,1139.31z"/>
						<path class="st5" d="M2109.02,1167.27c1.57-0.21,18.53-15.2,18.88-23.52c-2.28-12.96-15.9-22.08-27.25-21.69
							c-16.94,0.41-33.7,16.83-33.7,37.08c0,5.07,1.74,11.56,3.84,17.02c-11.53,6.08-38.24,28.78-37.89,44.39
							c0.33,17.22,21.48,26.33,40.5,25.73c14.51-0.41,39.48-9.52,39.48-28.78c0-1.2-0.18-2.43-0.35-3.44
							c-1.06-9.72-23.59-49.85-24.1-70.72c-0.17-6.69,2.28-12.15,8.91-12.15c5.06,0,8.38,3.44,9.6,10.53
							c1.41,7.29,0.18,18.85-0.17,23.71C2106.76,1166.87,2107.46,1167.47,2109.02,1167.27z M2069.91,1236.36
							c-10.49,0-18.51-7.09-18.16-19.05c0.35-11.15,7.5-23.11,21.12-35.66c5.76,14.79,13.62,31,14.15,42.54
							C2087.19,1233.93,2074.28,1236.36,2069.91,1236.36z"/>
					</g>
					<g>
						<g>
							<path class="st5" d="M1265.96,1076.37c-0.77-0.53-1.34-1.43-2.59-1.07c-0.38,0.11-1.01-0.66-1.56-1.06
								c0.25-0.23,0.32-0.33,0.37-0.33c1.36,0.06,1.9-0.82,2.2-1.95c0.28-1.04-0.65-0.99-1.19-1.3c-0.06-0.04-0.07-0.16-0.13-0.21
								c-0.47-0.44-0.95-0.87-1.67-1.51c-0.05-1.12-0.88-1.54-2.15-0.89c-0.81-0.91-1.57-1.76-2.37-2.66
								c0.53-0.1,1.06-0.13,1.51-0.33c0.24-0.1,0.49-0.51,0.47-0.76c-0.01-0.23-0.34-0.59-0.59-0.65c-1.98-0.49-3.24,0.28-3.66,2.23
								c-0.5,0.02-1.01,0.05-1.64,0.07c0.57-0.86,1.02-1.55,1.48-2.24c-0.11-0.11-0.23-0.22-0.34-0.33
								c-2.33,0.92-4.62,1.91-6.47,3.76c0.43-1.83,1.91-2.31,3.3-2.93c0.3-0.13,0.51-0.47,0.76-0.71c-0.35-0.16-0.69-0.36-1.06-0.45
								c-0.22-0.05-0.52,0.04-0.73,0.15c-1.55,0.81-3.14,1.55-4.6,2.49c-0.92,0.58-1.7,1.42-2.45,2.22
								c-0.43,0.46-0.67,1.09-1.17,1.95c0.17,0.13,0.55,0.65,1.03,0.74c2.16,0.44,4.33,0.98,6.52,1.06
								c1.73,0.07,3.25-0.06,3.86,1.98c0.1,0.33,0.49,0.58,0.75,0.86c1.5,1.55,1.37,2.03-0.53,3.1c-1.47,0.83-3.37,1.3-3.45,3.63
								c-2.53-0.34-5-0.62-7.14,1.91c1.12,0.3,2.05,0.76,2.96,0.73c0.92-0.03,1.83-0.53,2.71-0.9c0.62-0.26,0.93-0.15,1.15,0.5
								c0.19,0.57,0.5,1.09,0.65,1.41c0.26,0.88,0.55,1.51,0.63,2.18c0.16,1.35,0.86,0.89,1.6,0.59c0.19-0.08,0.49,0.05,0.73,0.14
								c1.11,0.42,2.2,0.91,3.33,1.28c0.38,0.13,0.86-0.03,1.29-0.06c-0.05-0.45,0.03-0.96-0.17-1.32c-0.4-0.7-0.95-1.32-1.44-1.97
								c0.05-0.06,0.11-0.12,0.16-0.18c1.13,0.71,2.27,1.42,3.36,2.1c0.69-0.73,1.57-1.31,1.89-2.12c0.28-0.72,0.02-1.7-0.16-2.53
								c-0.07-0.3-0.59-0.51-0.93-0.73c-1.24-0.81-1.38-1.84-0.31-2.75c0.2-0.17,0.63-0.23,0.88-0.14c0.29,0.11,0.7,0.44,0.71,0.69
								c0.08,1.31,0.96,1.98,1.84,2.73c0.22-0.16,0.4-0.23,0.49-0.37c0.92-1.45,2.16-2.44,3.83-2.93c0.86-0.25,0.93-0.98,0.22-1.53
								C1267.43,1077.43,1266.7,1076.89,1265.96,1076.37z"/>
							<path class="st5" d="M1354.66,1100.51c0.09,0.59,0.16,1.09,0.24,1.59c0.78,0.26,1.71,0.62,1.89,1.21
								c0.43,1.4,1.25,1.39,2.4,0.94c0.45,0.94,0.91,1.8,1.29,2.69c0.29,0.68,0.28,1.27-0.71,1.32c-0.21,0.01-0.42,0.15-0.72,0.26
								c0.42,0.33,0.74,0.59,1.11,0.89c-0.23,0.53-0.45,1.02-0.73,1.64c0.89,0.55,1.76,1.09,2.73,1.69
								c-0.79,0.59-1.5,1.12-2.23,1.67c0.59,0.26,1.11,0.5,1.68,0.75c0.63-1.58,1.87-1.17,3.04-1.09c1,0.07,2.05,0.22,3,0
								c1.81-0.42,2.22-2.13,0.72-3.91c-0.09,1.2-0.15,2.08-0.21,2.97c-0.07,0.06-0.14,0.13-0.2,0.19
								c-0.13-0.58-0.42-1.17-0.35-1.72c0.2-1.66,0-1.95-1.59-2.18c-0.36-0.05-0.76-0.5-0.95-0.87c-1.41-2.74-3.47-4.8-6.32-6.36
								c0.05-0.62,0.14-1.47,0.19-2.31c0.09-1.49-0.41-1.88-1.8-1.42c-0.47,0.16-0.94,0.32-1.4,0.48c-0.12-0.07-0.25-0.13-0.37-0.2
								c0.18-0.66,0.35-1.32,0.61-2.29c-0.62,0.17-1.44,0.17-1.88,0.58c-1.22,1.15-0.38,2.47-0.12,3.76
								C1354.24,1100.68,1354.42,1100.61,1354.66,1100.51z"/>
							<path class="st5" d="M1271.9,1116.37c-0.79,0.07-1.58,0.21-2.04,0.27c-0.65-0.75-1.11-1.28-1.55-1.78
								c0.53-0.79,1.13-1.68,1.74-2.57c-0.12-0.11-0.24-0.22-0.36-0.33c-1.38,0.41-2.68,0.97-3.62,2.16
								c-1.37,1.75-2.75,3.48-4.08,5.26c-0.27,0.36-0.59,1.02-0.44,1.27c0.2,0.33,0.84,0.54,1.29,0.54
								c1.32,0.01,2.64-0.15,3.96-0.17c0.51-0.01,1.02,0.16,1.33,0.21c0,0.68-0.18,1.3,0.03,1.47c1.23,1.03,1.66-0.64,2.53-0.87
								c0.75,1.4,2.09,2.01,3.67,1.67c0.26-1.88-0.5-5.01-1.36-5.64C1273.49,1116.54,1273.28,1116.25,1271.9,1116.37z"/>
							<path class="st5" d="M1230.07,1181.45c0.12-0.37-0.31-1.11-0.69-1.44c-4.57-3.88-10.02-5.18-15.86-5.23
								c-0.71-0.01-1.67,0.3-2.05,0.81c-0.37,0.49-0.13,1.43-0.16,2.17c0.47-0.07,0.99-0.04,1.4-0.24c0.82-0.41,1.58-0.96,2.37-1.45
								c-0.02,0.15-0.04,0.3-0.06,0.45c1.03,0.47,2.03,1.04,3.1,1.4c1.28,0.43,2.65,0.62,3.94,1.05c1.59,0.53,1.7,1.07,0.6,2.28
								c-0.14,0.15-0.22,0.34-0.45,0.7c1.49,0.38,2.79,0.99,4.28,0.41c0.62-0.24,1.42-0.67,1.92-0.47
								C1229.22,1182.2,1229.83,1182.17,1230.07,1181.45z"/>
							<path class="st5" d="M1331.92,1080.13c-0.63,0.12-1.28,0.21-1.86,0.46c-1.83,0.77-3.46,0.38-5.09-0.61
								c-0.63-0.38-1.45-0.45-2.18-0.67c-0.07,0.11-0.15,0.23-0.22,0.34c0.18,0.4,0.44,0.79,0.51,1.22c0.11,0.68,0.28,1.43,0.1,2.05
								c-0.37,1.29-0.22,1.88,1.07,2.16c0.8,0.17,1.67,0.08,2.51,0.05c0.67-0.03,1.38-0.32,2.01-0.18c3.07,0.67,5.09-0.97,6.99-2.94
								C1334.78,1080.33,1333.68,1079.8,1331.92,1080.13z"/>
							<path class="st5" d="M1350.69,1109.43c-0.18,0.61-0.32,1.26-0.3,1.88c0.01,0.32,0.45,0.92,0.63,0.9
								c1.28-0.16,2.63-0.26,3.8-0.75c1.43-0.6,1.68-1.8,0.99-3.19c-0.26-0.52-0.57-1.02-0.85-1.53c0.14,0.02,0.28,0.04,0.41,0.06
								c0.16-0.54,0.58-1.2,0.41-1.61c-0.37-0.89-3.25-1.47-4.31-0.98c0.25,0.33,0.5,0.65,0.8,1.04c-0.99,0.26-1.86,0.5-2.58,0.69
								c0.09,0.66,0.17,1.17,0.27,1.92C1350.81,1107.94,1350.95,1108.55,1350.69,1109.43z"/>
							<path class="st5" d="M1233.93,1181.21c-2.34-0.23-2.35-0.08-2.49,2.11c-2.34,0.22-2.47,0.32-2.34,1.94
								c0.81,0.07,1.65,0.14,2.48,0.21c0.78,0.07,1.59-0.02,1.96,1.01c0.09,0.24,0.97,0.41,1.38,0.28c0.48-0.15,0.98-0.59,1.24-1.04
								c0.51-0.87,1.25-1.19,2.17-1.36c0.79-0.15,1.55-0.42,2.65-0.72c-0.71-0.56-1.05-1.03-1.49-1.15
								C1237.65,1181.99,1235.8,1181.4,1233.93,1181.21z"/>
							<path class="st5" d="M1238.4,1083.56c-0.04-0.58,0.09-1.26-0.12-1.4c-0.57-0.37-1.29-0.51-1.98-0.75
								c0.04-0.13,0.12-0.42,0.28-0.95c-1.55,1.69-2.9,3.17-4.3,4.68c0.37,0.73,0.93,0.77,1.69,0.26c0.84-0.57,1.73-1.06,2.69-1.63
								c0.55,0.64,0.97,1.26,1.52,1.7c0.24,0.2,0.77,0.04,1.16,0.05c-0.03-0.38,0.06-0.83-0.11-1.13
								C1239.02,1084,1238.59,1083.74,1238.4,1083.56z"/>
							<path class="st5" d="M1320.85,1059.43c0,0.72-0.09,1.35,0.03,1.95c0.1,0.52,0.33,1.32,0.69,1.44
								c1.17,0.4,2.42,0.54,3.67,0.79C1325.41,1061.67,1322.13,1058.97,1320.85,1059.43z"/>
							<path class="st5" d="M1221.2,1184.05c0.21,1.8,2.02,2.13,3.07,2.98c0.95,0.77,2.09-0.39,2.85-1.47
								C1225.01,1184.36,1222.37,1183.68,1221.2,1184.05z"/>
							<path class="st5" d="M1248.55,1077.52c2.44,0.31,3.73-0.77,3.66-3.13C1250.15,1074.11,1248.24,1075.79,1248.55,1077.52z"/>
							<path class="st5" d="M1245.39,1184.25c-0.88-0.27-1.9-0.09-2.86-0.09c0.02,0.36-0.05,0.98,0.09,1.03
								c1.07,0.43,2.19,0.74,3.3,1.09c0.13-0.11,0.26-0.22,0.38-0.33C1246.01,1185.35,1245.83,1184.38,1245.39,1184.25z"/>
							<path class="st5" d="M1397.33,1140.86c0.76-1.12-1.36-2.42,0.54-3.55c-0.71-0.55-1.33-1.05-1.97-1.55
								c0.09,1.06,0.18,1.97,0.23,2.87C1396.18,1139.59,1396.43,1140.4,1397.33,1140.86z"/>
							<path class="st5" d="M1237.11,1089.91c1.61,0.16,2.36-0.68,2.02-2.66C1238.68,1088.57,1236.8,1088.13,1237.11,1089.91z"/>
							<path class="st5" d="M1351.67,1095.87c-0.36,0.83-0.72,1.66-1.17,2.71C1352.05,1098.07,1352.26,1097.17,1351.67,1095.87z"/>
							<path class="st5" d="M1233.72,1087.55c0.08,0.18,0.17,0.36,0.25,0.54c0.79-0.36,1.59-0.73,2.38-1.09
								c-0.08-0.16-0.16-0.33-0.24-0.49C1235.32,1086.85,1234.52,1087.2,1233.72,1087.55z"/>
							<path class="st5" d="M1248.44,1073.53c0.15,0.19,0.3,0.37,0.46,0.56c0.56-0.48,1.11-0.96,1.67-1.43
								c-0.12-0.14-0.23-0.29-0.35-0.43C1249.62,1072.65,1249.03,1073.09,1248.44,1073.53z"/>
							<path class="st5" d="M1388.57,1079.77c-11.23-10.65-24.16-19.05-38.37-24.92c-0.9-0.35-1.73-0.73-2.63-1.07l-0.48-0.17
								c-0.42-0.14-0.8-0.28-1.14-0.41c-3.6-1.35-7.4-2.56-11.3-3.59l-0.24-0.07c-10.51-2.77-21.33-4.18-32.29-4.18
								c-5.36,0-10.68,0.31-15.83,0.97c-6.05,0.76-12.03,1.97-17.77,3.56l-1.9,0.52c-3.32,1-6.26,2-9.06,3.04
								c-0.59,0.24-1.21,0.48-1.83,0.76c-0.55,0.21-1.11,0.38-1.59,0.62l-0.38,0.17c-0.52,0.21-1.07,0.45-1.59,0.66
								c-0.45,0.21-0.93,0.41-1.42,0.62l-0.83,0.35c-0.38,0.21-0.76,0.38-1.14,0.55l-0.73,0.38c-1.52,0.69-3.01,1.42-4.42,2.18
								c-0.76,0.41-1.49,0.79-2.21,1.21c-1.76,0.93-3.6,2.04-5.63,3.32l-0.45,0.28c-1.21,0.76-2.38,1.52-3.53,2.28l-1.35,0.03v0.9
								c-1.73,1.18-3.59,2.56-5.77,4.25c-0.73,0.55-1.45,1.14-2.14,1.69l-0.55,0.45c-0.86,0.73-1.69,1.45-2.49,2.14
								c-0.17,0.14-0.31,0.28-0.35,0.28c-23.75,20.84-38.68,49.57-42.07,80.82c-0.52,4.49-0.76,9.09-0.76,13.72
								c0,28.72,9.92,56.76,27.96,79.05c17.73,21.92,42.55,37.44,69.93,43.62c2.07,0.45,4.22,0.9,6.4,1.28
								c6.98,1.21,14.21,1.8,21.5,1.8c38.78,0,74.8-17.49,98.86-48.01l0.52-0.48v-0.17c1.21-1.52,2.35-3.08,3.39-4.6l0.21-0.24
								c1.66-2.39,3.32-4.91,4.98-7.67h0.83v-1.42c5.95-10.2,10.44-21.22,13.27-32.77l0.07-0.21c1-4.15,1.87-8.5,2.45-12.96
								l0.1-0.45c0.69-5.53,1.11-11.16,1.11-16.76C1427.91,1136.19,1413.91,1103.76,1388.57,1079.77z M1380.31,1078.87
								c0.48-0.07,0.93-0.1,1.42-0.17c1.42,1.24,2.87,2.52,4.25,3.84c0.76,0.73,1.45,1.49,2.18,2.18c-0.31,0.14-0.59,0.21-0.86,0.21
								c-0.55-0.07-1.28-0.38-1.52-0.83c-1.11-1.8-2.9-2.73-4.53-3.84c-0.41-0.28-0.86-0.52-1.31-0.76
								C1380.07,1079.25,1380.17,1079.08,1380.31,1078.87z M1312.42,1049.56c-0.86,0.21-1.69,0.41-2.56,0.66
								c0-0.31-0.03-0.55-0.07-0.83C1310.69,1049.42,1311.56,1049.49,1312.42,1049.56z M1277.27,1051.67
								c0.45-0.1,0.86-0.17,1.31-0.24c-0.17,0.35-0.35,0.73-0.62,0.97c-1.35,1.18-2.9,1.9-4.7,2c-0.69,0-1.42,0.14-2.07,0.21
								c-0.1-0.38-0.17-0.69-0.28-1.21C1273.29,1053.54,1275.33,1052.78,1277.27,1051.67z M1180.13,1171.1
								c0-4.46,0.24-8.92,0.73-13.31c0-0.14,0.03-0.35,0.07-0.48c0.03,0.03,0.03,0.03,0.07,0.03c0.52,0.66,0.79,1.59,1,2.39
								c0.45,1.83,0.59,3.84,1.31,5.57c1.66,3.91,2.49,7.92,2.66,12.13c0.14,4.7,2.35,7.88,6.77,9.54c1.94,0.76,3.84,1.62,5.7,2.52
								c1.59,0.69,2.8,1.87,3.39,3.53c0.35,0.9,0.97,1.38,1.87,1.66c2.14,0.83,4.22,1.62,6.29,2.63c1.24,0.55,2.14,1.52,2.56,2.97
								c0.21,0.73,0.76,1.45,1.35,1.9c1.69,1.24,3.46,2.35,5.25,3.46c1.35,0.83,1.76,0.62,2.04-0.97c0.17-1,0.52-1.11,1.35-0.66
								c2.11,1.24,3.49,3.18,4.49,5.29c0.45,0.93,0.62,2.25,0.38,3.32c-0.31,1.76-0.97,3.53-1.56,5.22
								c-0.73,1.94-0.45,3.66,0.83,5.29c1.31,1.62,1.07,2.25-0.86,3.04c-0.73,0.31-1.31,0.79-0.86,1.56
								c1.07,1.73,2.04,3.66,3.46,4.98c2.8,2.63,5.95,4.87,8.88,7.33c0.59,0.48,1.35,1.28,1.38,2c0.14,2.21,1.28,3.63,3.08,4.53
								c2.39,1.21,4.87,2.25,7.36,3.18c3.21,1.21,5.15,3.39,5.7,6.77c0.59,3.35,1.94,6.43,3.73,9.3c2.39,3.73,3.84,7.78,4.46,12.17
								c0.38,2.59,1.38,4.94,3.35,6.67c1.73,1.56,3.39,3.04,5.12,4.53C1218.36,1275.42,1180.13,1226.34,1180.13,1171.1z
								 M1414.53,1157.44c-1.11,0.38-2.21,0.8-3.32,1.24c-0.31-0.69-0.52-1.24-0.79-1.76c-0.73-1.49-1.73-2.7-3.21-3.49
								c-1.31-0.73-1.76-0.52-1.9,0.97c-0.03,0.9-0.1,1.73-0.24,2.56c-0.48,2.59-2.52,3.32-4.49,1.52
								c-1.38-1.24-2.59-2.66-4.01-3.91c-0.69-0.62-1.56-1.11-2.42-1.56c-0.55-0.28-1.24-0.35-1.83-0.59
								c-2.66-1-3.73-3.42-2.66-6.08c0.1-0.35,0.31-0.69,0.45-1.04c0.41-1.18-0.03-1.97-1.24-1.83c-1.18,0.14-2.25,0.62-3.35,1
								c-1.28,0.52-2.56,1.52-3.84,1.49c-3.7-0.14-7.16,0.83-10.75,1.35c-3.42,0.45-5.95,2.39-8.36,4.56
								c-1.59,1.49-1.56,3.49-1.94,5.39c-0.03,0.17-0.03,0.28-0.07,0.38c-0.31,1.28-1.04,2.07-2.32,2.52
								c-0.97,0.31-2.01,0.66-2.73,1.28c-3.35,2.9-6.46,6.05-8.36,10.09c-0.8,1.69-1.28,3.56-0.48,5.32
								c1.11,2.42,0.62,4.49-0.93,6.39c-1.9,2.42-2.45,5.15-1.8,8.09c1,4.56,1.97,9.16,6.43,11.86c0.17,0.03,0.24,0.21,0.38,0.35
								c2.14,1.94,4.25,3.87,6.43,5.77c1.52,1.31,3.39,1.59,5.43,1.49c0.86-0.1,1.83,0.07,2.63,0.45c2,0.86,3.91,0.83,5.81-0.14
								c1.31-0.69,2.52-1.49,3.87-1.97c1.35-0.48,2.8-0.73,4.22-0.9c1.17-0.17,1.8,0.55,1.87,1.73c0.03,0.31,0,0.66,0,1
								c1.52,0.17,2.87,0.31,4.42,0.48c-0.31,0.66-0.48,1.14-0.69,1.59c-1,2.18-1.52,4.53-1.04,6.88c0.45,2.04,1.24,4.04,2.07,6.01
								c1,2.28,1.24,4.56,0.17,6.77c-1.11,2.32-2.18,4.7-3.7,6.71c-4.56,5.98-8.02,12.55-10.96,19.43
								c-2.18,5.22-4.81,10.2-8.68,14.41c-0.35,0.35-0.55,1.21-0.35,1.56c0.28,0.45,1.07,0.93,1.52,0.83
								c0.62-0.1,1.21-0.21,1.8-0.35c-18.84,11.51-40.62,17.77-63.43,17.77c-7.09,0-14.07-0.62-20.84-1.8
								c-1.62-0.28-3.18-0.59-4.77-0.93c-0.21-0.21-0.38-0.41-0.52-0.66c-0.62-1.35-1.42-2.28-2.83-2.87
								c-1-0.48-1.11-1.56-0.24-2.01c1.24-0.73,0.93-1.31,0.03-2c-1.11-0.79-0.69-1.76-0.41-2.77c0.21-0.93,0.97-0.83,1.69-1
								c0.69-0.14,1.76-0.38,1.9-0.83c0.24-0.66-0.14-1.62-0.45-2.35c-0.31-0.73-0.86-1.38-1.49-2.42c0.97,0.14,1.49,0.14,2.04,0.21
								c1,0.21,1.97,0.52,2.97,0.69c1.24,0.24,1.97-0.21,2.25-1.45c0.17-0.55,0.24-1.18,0.28-1.76c0.1-1.69,0.76-3.04,2.01-4.25
								c2.56-2.49,2.63-3.04,1.21-6.26c-0.38-0.93-0.28-1.62,0.48-2.39c1.73-1.76,3.8-2.52,6.15-2.66c4.04-0.28,5.74-1.62,6.98-5.43
								c0.21-0.76,0.41-1.49,0.52-2.28c0.17-2.35,0.38-4.74,0.48-7.12c0.1-0.69,0.24-1.52,1.04-1.24c1.11,0.41,1.49-0.28,2.07-0.86
								c0.83-0.86,1.8-1.59,2.45-2.56c0.93-1.31,1.83-2.73,2.39-4.18c0.66-1.66-0.03-2.45-1.8-2.9c-0.97-0.28-1.87-0.86-2.8-1.42
								c-1.14-0.66-2.21-1.49-3.42-2.04c-1.07-0.52-2.35-0.73-3.56-1.11c-2.32-0.76-4.63-1.11-6.81,0.41
								c-0.07,0.07-0.17-0.03-0.28-0.07c-0.07-0.1-0.17-0.24-0.21-0.41c-0.48-2.45-1.45-3.21-3.84-2.73c-0.86,0.17-1.69,0.62-2.49,1
								c-0.52,0.28-0.97,0.69-1.69,1.18c0-0.93,0.03-1.56,0-2.21c-0.03-0.45-0.1-1.07-0.38-1.24c-0.24-0.14-0.83,0.07-1.24,0.24
								c-0.62,0.28-1.14,0.73-1.76,1.04c-0.97,0.55-1.97,1.11-2.97,1.66c-0.73-1.38-0.59-2.28,0.48-3.08c0.93-0.69,2-1.28,3.01-1.9
								c1.45-0.9,1.49-1.42,0.48-2.73c-0.76-0.97-1.28-2.11-1.97-3.08c-0.35-0.52-0.8-1.11-1.31-1.28
								c-3.39-0.97-6.78-1.94-10.27-2.7c-2.63-0.52-5.18-1.14-7.19-2.97c-0.76-0.69-1.42-1.76-1.62-2.73
								c-0.21-1.18-0.52-1.69-1.73-1.59c-0.38,0.03-1-0.35-1.11-0.66c-0.35-1.07-1.07-1.14-1.9-0.93c-1.18,0.35-2.28,0.83-3.42,1.07
								c-2.83,0.55-5.57,0.17-8.02-1.52c-0.41-0.28-1-0.52-1.49-0.48c-0.79,0.03-0.97,0.73-1,1.38c0,0.62,0.03,1.24-0.17,1.8
								c-0.14,0.41-0.55,0.76-0.86,1.11c-0.41-0.41-0.83-0.76-1.11-1.21c-0.17-0.28,0-0.69,0-1.04c0.07-1.35,0.21-2.73,0.28-4.29
								c-0.45,0.31-0.73,0.41-0.93,0.62c-1.42,1.62-3.15,2.66-5.29,3.11c-0.62,0.1-1.28,1-1.52,1.66c-0.83,2.11-1.04,2.28-3.15,1.73
								c-0.9-0.21-1.73-0.59-2.59-0.73c-1.14-0.21-2.28-0.42-3.42-0.31c-2.56,0.24-3.59-0.45-3.87-3.11
								c-0.17-1.66-0.17-3.35-0.31-4.98c-0.28-3.11-1.62-4.39-4.74-4.6c-0.73-0.07-1.52,0.1-2.28,0.24
								c-1.18,0.17-1.66-0.14-1.38-1.35c0.28-1.35,0.76-2.7,1.24-3.98c0.55-1.62,1.04-3.18,0.55-4.87c-0.45-1.62-1.52-2-2.73-0.86
								c-0.83,0.79-1.42,1.8-2.21,2.63c-0.83,0.9-1.66,1.87-2.7,2.45c-2.25,1.28-4.32,0.41-5.15-2.07
								c-0.28-0.83-0.28-1.76-0.45-2.63c-0.41-2.07-0.62-4.25-1.35-6.22c-1.69-4.53-0.35-8.3,2.7-11.65
								c1.9-2.14,3.15-2.25,5.67-0.97c1.38,0.66,1.9,0.55,2.83-0.69c1.38-1.8,2.42-1.9,4.39-0.83c0.93,0.45,2.11,0.69,3.15,0.62
								c1.21-0.07,1.87,0.28,2.25,1.35c0.21,0.62,0.41,1.21,0.52,1.87c0.35,2.42,1.49,4.49,3.01,6.36c0.59,0.73,1.35,1.73,2.28,1.18
								c0.93-0.62,0.28-1.69-0.14-2.56c-0.79-1.66-1.62-3.28-2.42-4.91c-0.83-1.76-1.21-3.66,0.17-5.22
								c2.45-2.77,5.05-5.5,7.81-8.02c1.76-1.59,2.18-1.97,1.73-4.29c-0.31-1.42-0.52-2.87-0.62-4.29c-0.03-1.18,0.73-2.07,1.8-2.42
								c0.48-0.17,1.18,0.35,1.69,0.52c0.69-0.73,1.35-1.76,2.28-2.32c1.11-0.62,2.18-0.93,1.17-2.7c1.07,0.07,1.87,0.07,2.66,0.14
								c1.83,0.21,2.35-0.07,2.87-1.9c0.31-1.07,0.86-1.76,2.11-1.9c1.35-0.14,2.42-0.83,3.21-2.04c0.73-1.14,1.52-1.35,2.63-0.55
								c0.55,0.38,0.93,1,1.49,1.62c0.45-0.73,0.93-1.52,1.45-2.25c0.93-1.38,2.25-1.66,3.63-0.8c0.31,0.17,0.8,0.41,1.04,0.31
								c1.9-0.9,3.84-1.83,5.67-2.9c0.28-0.14,0.45-0.93,0.31-1.31c-0.07-0.31-0.76-0.66-1.11-0.62c-1.04,0.1-2.07,0.41-3.11,0.66
								c-0.9,0.17-1.8,0.41-2.7,0.52c-0.83,0.14-1.24-0.31-1.31-1.18c-0.1-1-0.21-2.04-0.45-3.04c-0.35-1.62-1.11-2.11-2.77-1.87
								c-1.94,0.28-3.56,1.07-4.8,2.63c-0.38,0.48-0.83,0.86-1.24,1.28c-0.1-0.1-0.24-0.21-0.35-0.28c0.07-1.07,0.66-1.94,1.56-2.49
								c1.31-0.83,2.66-1.56,4.01-2.32c1.62-0.9,3.28-0.97,5.08-0.52c0.73,0.14,1.49,0.24,2.21,0.14c3.01-0.35,5.88-1.11,8.54-2.59
								c1.18-0.66,2.49-1,3.73-1.59c0.86-0.38,1.73-0.8,2.49-1.35c0.86-0.69,0.86-1.69-0.14-2.14c-1.07-0.48-2.21-0.73-3.39-0.83
								c-0.59-0.1-1.21,0.35-1.83,0.45c-0.38,0.07-0.76-0.1-1.18-0.21c0.14-0.35,0.14-0.8,0.31-1c0.86-0.73,1.8-1.42,2.83-2.21
								c-1-0.24-2.14-0.41-3.22-0.83c-1.11-0.42-2.21-1-3.21-1.66c-0.59-0.35-0.62-0.9-0.1-1.52c0.38-0.38,0.66-0.97,0.66-1.45
								c-0.1-2.11-1.04-3.91-2.59-5.46c-0.76,0.69-1.42,1.35-2.14,1.97c-2.83,2.32-5.36,2.49-8.02,0.55c0.8-0.9,1.59-1.69,2.35-2.56
								c0.62-0.69,0.8-1.56-0.1-2.07c-2.07-1.21-4.08-2.52-6.64-2.39c-0.52,0.03-1.11,0.17-1.52,0c-1.28-0.62-1.69,0.1-2.11,1.14
								c-0.52,1.35-0.9,2.94-1.9,3.87c-1.42,1.31-1.42,2.39-0.55,3.94c0.83,1.49,0.45,2.73-0.86,3.87
								c-0.45,0.41-0.97,0.76-1.56,1.11c-1.87,1.11-2.9,2.73-3.46,4.84c-0.41,1.69-1.07,3.32-1.73,4.94
								c-0.59,1.38-1.52,1.49-2.56,0.38c-1.49-1.62-2.11-3.46-1.28-5.63c0.52-1.31,0.97-2.63,1.56-4.22
								c-0.76,0.31-1.24,0.48-1.69,0.73c-1.18,0.62-2.32,1.11-3.32-0.35c-0.17-0.24-0.62-0.41-0.93-0.41
								c-2.56,0.03-2.87-2.59-4.42-3.7c-0.21-0.17,0.03-0.93,0.03-1.42c0.1-0.97,0.1-1.94,0.28-2.87c0.14-0.8,0.21-1.83,0.73-2.28
								c1.83-1.66,3.91-3.04,5.77-4.6c0.86-0.69,1.59-1.59,2.38-2.39c0.28-0.31,0.55-0.73,0.86-0.73c3.11-0.1,4.77-1.66,5.01-4.8
								c0.03-0.24,0.21-0.45,0.35-0.9c1.14,1.56,2,0.48,2.9-0.14c0.97-0.66,1.87-1.35,2.63,0.07c0.97-0.38,1.83-0.73,2.7-1.11
								c2.04-0.86,3.39-2.39,3.87-4.6c0.17-0.66,0.03-1.38-0.97-0.97c-1.69,0.69-3.35,1.45-4.25,3.28
								c-0.24,0.48-0.59,1.07-1.04,1.24c-0.52,0.21-1.28,0.21-1.83-0.07c-0.21-0.1-0.21-1-0.14-1.49c0.07-0.38,0.41-0.66,0.59-1.04
								c-0.38-0.1-0.73-0.21-1.24-0.35c1.11-2.04,2.11-4.01,3.11-5.95c-0.07-0.1-0.21-0.21-0.35-0.28c-1.04,0.9-2.18,1.69-3.11,2.73
								c-0.86,0.97-1.49,2.14-2.21,3.25c-0.79,1.18-1.83,2.21-3.25,2.28c-1.56,0.07-3.15,0.38-4.74,0.1c0.52-0.41,1-0.83,1.49-1.24
								c2.28-1.76,4.18-3.15,5.98-4.36l0.24-0.17c0.07,0,0.14-0.07,0.17-0.1l0.9-0.59v-0.03c0.83-0.55,1.69-1.11,2.59-1.66
								l0.45-0.31c1.73-1.04,3.21-1.97,4.7-2.8c-0.03,0.07-0.1,0.17-0.1,0.24c-0.1,0.28-0.1,0.73,0.03,0.79
								c0.28,0.17,0.76,0.28,1.04,0.14c1.11-0.45,2.25-0.97,3.28-1.59c0.55-0.35,0.9-1,1.35-1.49c-0.45-0.17-0.83-0.35-1.18-0.48
								c0.17-0.1,0.42-0.21,0.62-0.31c0.1,0,0.17,0.07,0.31,0.1c0.1-0.14,0.17-0.28,0.28-0.41c0.41-0.17,0.83-0.41,1.24-0.62
								c-0.14,0.41,0.07,0.76,0.76,0.93c0.31,0.1,0.66,0.07,1,0.07c2.01,0,4.04-0.03,6.08,0c1.42,0,2.35-0.76,3.32-2.07
								c-2.28-0.83-4.39-0.48-6.57-0.24c0.45-0.45,0.73-0.83,0.83-1.18c0.21-0.07,0.35-0.1,0.48-0.21l0.24-0.07
								c0.03,0.21,0.1,0.38,0.17,0.48c0.14,0.24,0.62,0.31,0.93,0.24c1.04-0.14,2-0.45,3.01-0.59c0.24-0.07,0.73,0.1,0.86,0.31
								c0.35,0.73,0.8,0.62,1.38,0.38c0.55-0.28,1.14-0.48,1.76-0.73c0.76-0.31,1.35-0.69,0.97-1.35c2.35-0.93,4.67-1.76,6.98-2.66
								c-0.31,1.45,0.73,1.66,1.8,1.97c-1.18,0.17-2.35,0.35-3.49,0.55c-0.03,1.9,0.76,2.83,2.49,2.8c1.69-0.03,3.39-0.35,5.12-0.41
								c2.63-0.14,4.11,1.87,3.35,4.39c-0.24,0.83-0.79,1.59-1,2.45c-0.14,0.69-0.24,1.8,0.17,2.21c0.62,0.73,0.9,1.31,0.73,2.25
								c-0.48-0.21-1-0.38-1.42-0.59c-0.66-0.28-1.24-0.52-1.73,0.35c-0.45,0.76-0.73,1.56,0,2.18c0.52,0.45,1.35,0.97,1.8,0.8
								c1.04-0.31,2.28-0.66,2.63-1.9h2.49c-0.38,0.52-0.62,1.14-0.93,1.18c-2.25,0.38-2.83,2.42-4.04,3.77
								c-0.07,0.1-0.21,0.21-0.31,0.28c-0.14,0.24-0.31,0.48-0.38,0.76c-0.59,2,0.83,5.15,2.45,5.91c0.59,1.76,1.11,3.46,1.73,5.08
								c0.73,1.94,2.14,2.94,4.29,3.11c0.73,0.1,1.59,0.31,2.21,0.76c1.04,0.83,1.97,0.8,3.04,0.28c1.18-0.55,1.94-1.42,2.49-2.66
								c0.62-1.38,1.52-2.63,2.25-4.04c0.35-0.59,0.76-1.31,0.69-1.94c-0.17-1.42,0.62-1.9,1.69-2.11c1.52-0.35,3.01-0.52,4.53-0.69
								c1.38-0.21,2.21-0.9,2.83-2.11c0.48-0.93,1.24-1.69,1.83-2.52c0.35-0.45,0.59-0.97,0.93-1.49c0.52,0,1.21-0.07,1.97,0
								c2.25,0.07,4.39-0.24,6.33-1.49c0.97-0.59,1.87-1.18,1.11-2.63c0.38,0.03,0.55,0.03,0.69,0.07c1.04,0.21,1.73-0.21,2.21-1.11
								c0.52-0.97,0-1.66-0.62-2.25c-0.62-0.59-1.35-1.04-2.07-1.45c-0.9-0.55-1.83-1.07-2.77-1.56c0.03-0.14,0.07-0.24,0.1-0.41
								c0.83,0.1,1.73,0.28,2.52,0.24c0.38,0,0.76-0.38,1.14-0.59c-0.21-0.28-0.41-0.55-0.66-0.79c-0.17-0.21-0.45-0.31-0.66-0.52
								c1.9-2.56,1.9-2.56-0.66-4.63c0.14-0.28,0.31-0.52,0.48-0.9c-0.79-0.35-1.52-0.69-2.25-1.07c-0.8-0.38-1.24-0.83-0.83-1.8
								c0.1-0.45,0.03-1.18-0.24-1.56c-0.69-1-0.35-1.52,0.52-2.07c0.24-0.17,0.45-0.45,0.66-0.76c5.84,0.69,11.61,1.76,17.25,3.28
								c0.24,0.73,0.97,0.9,1.62,1c0.62,0.14,1.31-0.03,1.9,0.14c0.83,0.24,1.83,0.52,2.28,1.14c1.14,1.52,2.42,2.35,4.39,2.18
								c0,0.1,0.03,0.24,0.03,0.31c0.69-0.28,1.49-0.41,1.97-0.83l0.62,0.21c0.24,0.1,0.48,0.24,0.73,0.31
								c0.1,0.24,0.14,0.41,0.21,0.62c0.14,0.38,0.73,0.9,0.79,0.9c0.31-0.24,0.66-0.45,0.97-0.73c9.13,3.84,17.66,8.71,25.58,14.59
								c-0.07,0-0.14,0-0.17-0.03c-1.59-0.41-3.18-1.18-4.6-2.07c-1.31-0.73-2.59-0.48-2.77,1.04c-0.1,0.97,0.1,2.04,0.38,2.97
								c0.48,1.62,0.41,3.15,0.1,4.8c-0.28,1.59-0.17,3.25-0.31,4.87c-0.1,1-0.24,2-0.52,2.97c-0.21,0.62-0.73,1.14-1,1.73
								c-0.79,1.59-0.45,3.04,1,4.04c0.76,0.52,1.59,1.04,2.38,1.49c2.01,1.07,2.56,0.83,3.21-1.35c0.14-0.45,0.41-0.93,0.62-1.42
								c0.14,0.07,0.24,0.1,0.38,0.17c0.03,0.28,0.14,0.52,0.07,0.8c-0.21,1.87,0.79,2.97,2.28,3.77c1.73,0.97,3.46,1.94,5.08,2.97
								c0.97,0.66,1.04,1.62,0.38,2.59c-0.41,0.62-0.83,1.24-1.42,2.14c1.73-0.76,2.59-1.83,2.94-3.32
								c0.83-3.42-0.73-6.98-3.77-8.75c-3.42-2-3.94-3.18-3.53-7.12c0.14-1.38,0.1-2.8-0.17-4.18c-0.24-1.04,0.17-1.42,0.97-1.69
								c1.11-0.38,2.21,0.07,2.66,1.18c0.31,0.86,0.48,1.8,0.59,2.73c0.1,2.21,0.73,4.18,2.11,5.91c2.11,2.66,4.49,4.56,8.23,3.04
								c0.62-0.31,1.38-0.24,2.14-0.31c0.07,0.14,0.1,0.28,0.21,0.41c-0.62,0.76-1.24,1.45-1.83,2.18
								c-1.42,1.69-1.42,1.69,0.21,3.11c0.07,0.1,0.24,0.17,0.24,0.28c0.07,0.55,0.14,1.14-0.03,1.62
								c-0.03,0.14-0.83,0.14-1.31,0.03c-0.31-0.07-0.59-0.31-0.9-0.52c-0.1,0.07-0.14,0.14-0.21,0.24
								c0.73,0.97,1.49,1.94,2.25,2.94c0.62,0.73,0.48,1.35-0.31,1.76c-0.73,0.38-1.49,0.62-2.21,0.97
								c-0.79,0.31-1.66,0.59-2.28,1.11c-2.21,1.94-4.53,1.83-7.05,0.8c-1.59-0.66-2.32-1.83-2.38-3.56
								c-0.07-1.28-0.35-2.56-0.59-3.77c-0.1-0.38-0.41-0.73-0.73-1.14c-1.31,2.04-1.28,3.25,0.14,4.67
								c0.17,0.17,0.38,0.38,0.48,0.59c1.17,1.56,0.76,3.15-1.11,3.53c-2.04,0.45-3.04,1.69-3.53,3.56
								c-0.21,0.69-0.52,1.38-0.66,2.07c-0.9,3.77-3.15,6.33-6.81,7.64c-0.48,0.17-0.9,0.48-1.31,0.76c0,0.1,0.03,0.21,0.07,0.38
								c0.79,0.21,1.56,0.52,2.38,0.69c2.8,0.62,4.18,2.11,4.49,4.94c0.17,1.38-0.38,2.14-1.8,2.28c-0.93,0.1-1.94,0-2.94,0.07
								c-2.07,0.21-4.15,0.38-6.19,0.66c-1.31,0.21-2.18,1.21-1.9,2.49c0.59,3.04,1.31,6.05,2.11,9.06c0.35,1.24,1.42,1.69,2.73,1.9
								c1,0.14,1.94,0.9,2.87,1.38c0.38,0.24,0.83,0.8,1.11,0.76c1.94-0.52,4.25-0.62,5.46-2.39c1.42-2.11,2.9-4.25,3.28-6.88
								c0.14-0.8,0.9-1.49,1.28-2.25c0.48-0.93,1.21-1.9,1.35-2.87c0.31-2.45,1.42-3.32,3.8-2.45c1,0.38,1.97,0.41,2.77-0.31
								c1.07-0.97,1.97-0.66,2.9,0.17c0.52,0.52,1.04,1.04,1.59,1.52c0.79,0.73,1.56,1.45,2.35,2.21c-0.35-1.04-1.04-1.8-1.45-2.66
								c-0.38-0.8-0.69-1.69-0.62-2.52c0.03-1.76,0.83-2.04,2.32-1.24c1.66,0.9,3.49,1.62,5.08,2.66c1.38,0.83,2.87,1.87,3.7,3.21
								c1.9,3.08,3.53,6.39,5.19,9.64c0.48,1,1.17,1.56,2.28,1.42c0.38-0.07,0.76-0.28,1.14-0.45c-0.21-0.35-0.38-0.83-0.66-1.11
								c-1.04-0.93-2.18-1.69-3.08-2.7c-1.11-1.14-0.69-2.21,0.79-2.63c0.31-0.07,0.59-0.07,0.9-0.14c2.52-0.52,3.32-1.69,2.97-4.18
								c-0.45-2.56-0.86-5.12-1.31-7.71c-0.1-0.69-0.24-1.42,0.73-1.59c0.9-0.14,1.49,0.35,1.69,1.21c0.14,0.48,0.21,1,0.28,1.52
								c0.07,0.59,0.31,1.11,1.04,0.86c0.79-0.24,0.83-0.76,0.55-1.42c-0.24-0.59-0.48-1.18-0.76-1.76
								c1.31-0.31,2.14,0.03,2.87,1.14c1,1.42,1.94,2.83,2.9,4.25c0.62,1.76,1.21,3.53,1.83,5.29c-0.35,0.28-0.86,0.31-1.52,0.1
								c-0.79-0.28-1.56-0.69-2.38-0.9c-0.93-0.31-1.69,0.14-1.38,1.14c0.48,1.59-0.17,2.14-1.56,2.45
								c-0.31,0.07-0.62,0.28-0.9,0.45c-1.62,0.93-1.83,1.8-1.14,3.53c0.52,1.18,0.93,2.39,1.21,3.59c0.21,0.97,0.52,1.31,1.56,1.14
								c0.8-0.14,1.9-0.38,2.45,0.03c1.35,0.9,2,0.48,2.56-0.8c0.03,0,0.14,0,0.48-0.1c0.31,0.83,0.83,1.66,0.86,2.52
								c0.14,2.39,0.1,4.77,0.03,7.16c-0.1,2.11-0.73,2.7-2.77,2.9C1415.39,1157.1,1414.98,1157.27,1414.53,1157.44z
								 M1423.03,1187.24l-0.07,0.31c-0.55,4.11-1.31,8.12-2.25,11.93c-0.79-0.76-0.9-1.76-0.62-2.97c0.45-2,1.28-3.98,1.28-5.98
								c0.03-4.6-0.31-9.16-0.59-13.79c-0.24-3.8-1.18-7.47-3.01-10.85c-0.48-1-0.73-2.11-0.93-3.18c-0.21-1.24,0.35-1.94,1.49-2.07
								c1.45-0.21,1.76,0.07,2.11,1.49c1.18,4.32,2.25,8.68,3.59,12.93C1423.9,1179.12,1423.55,1183.23,1423.03,1187.24z"/>
						</g>
					</g>
					<g>
						<g>
							<g>
								<linearGradient id="SVGID_6_" gradientUnits="userSpaceOnUse" x1="662.657" y1="785.0157" x2="570.3673" y2="1323.8687">
									<stop  offset="0" style="stop-color:#FFF33B"/>
									<stop  offset="0.0401" style="stop-color:#FEE72E"/>
									<stop  offset="0.1171" style="stop-color:#FED51B"/>
									<stop  offset="0.1964" style="stop-color:#FDCA10"/>
									<stop  offset="0.2809" style="stop-color:#FDC70C"/>
									<stop  offset="0.6685" style="stop-color:#F3903F"/>
									<stop  offset="0.8876" style="stop-color:#ED683C"/>
									<stop  offset="1" style="stop-color:#E93E3A"/>
								</linearGradient>
								<path class="st6" d="M644.66,1060.8c-0.35,3.98-0.78,7.99-1.28,12.03c-2.53,20.91-6.72,42.5-12.46,63.94
									c-0.02,0.14-0.06,0.29-0.12,0.41c-0.93,3.19-6.7,22.95-19.08,51.13c-1.98,4.51-4.14,9.23-6.47,14.11
									c-3.96,8.41-8.47,17.35-13.51,26.68c-1.73,0.49-3.48,0.93-5.21,1.36c-10.49,2.49-21.32,3.98-31.54,4.8
									c2.7-3.65,5.23-7.23,7.64-10.67c20.46-29.68,30.53-51.58,32.65-56.42l0.1-0.27l0.31-0.78
									c12.94-30.96,23.4-64.62,30.14-97.01c0.89-4.26,1.71-8.49,2.47-12.69c6.34-35.37,7.95-68.54,3.17-94.12
									c-0.14-0.87-0.33-1.77-0.51-2.58l0.02-0.04c-0.25-1.2-0.52-2.37-0.84-3.56l5.11-0.6c0.51,1.44,1.07,2.93,1.55,4.51
									c0.04,0.02,0.04,0.02,0.02,0.04c1.59,4.86,2.99,9.91,4.18,15.22C646.47,1000.65,647.5,1029.76,644.66,1060.8z"/>
							</g>
							<g>
								<g>
									<linearGradient id="SVGID_7_" gradientUnits="userSpaceOnUse" x1="650.1382" y1="782.8716" x2="557.8485" y2="1321.7246">
										<stop  offset="0" style="stop-color:#FFF33B"/>
										<stop  offset="0.0401" style="stop-color:#FEE72E"/>
										<stop  offset="0.1171" style="stop-color:#FED51B"/>
										<stop  offset="0.1964" style="stop-color:#FDCA10"/>
										<stop  offset="0.2809" style="stop-color:#FDC70C"/>
										<stop  offset="0.6685" style="stop-color:#F3903F"/>
										<stop  offset="0.8876" style="stop-color:#ED683C"/>
										<stop  offset="1" style="stop-color:#E93E3A"/>
									</linearGradient>
									<path class="st7" d="M729.64,975.41c-11.14-29.92-57.69-34.31-86.15-33.75c6.88-5.82,22.32-7.7,37.92-7.18
										c-5.44-2.98-11.72-4.44-18.56-4.55c10.3-3.93,22.16-4.75,35.44-2.43c-3.37-3.86-11.28-6.63-23.61-8.26
										c12.76-5.46,26.86-5.52,42.36-0.15c-4.82-4.89-11.41-8.77-19.87-11.73c16.52,0.14,30.84,4.04,42.91,11.94
										c-5.23-5.53-9.54-9.48-12.83-11.91c6.08,1.03,14.27,2.69,19.9,5.83c-28.66-20.69-48.85-22.52-69.21-12.81
										c-0.05,0.02-0.12-0.01-0.21,0.08c-1,0.48-1.97,0.97-2.96,1.49c-0.12,0.08-0.31,0.13-0.42,0.29
										c-4.87,2.53-9.65,5.64-14.58,9.42l-0.02,0.04l-0.04-0.01l-0.02,0.04c-1.69,1.21-3.28,2.47-5.08,3.84
										c-5.7,4.52-11.66,9.66-17.99,15.28c0.1-0.76,0.31-1.57,0.34-2.37l0.05-0.02c1.16-7.81,1.64-15.01,1.16-21.54l-0.12-1.66
										c-0.07-1.05-0.21-2.04-0.38-3.09c-0.02-0.35-0.06-0.66-0.14-0.99c-0.09-0.8-0.27-1.6-0.41-2.38
										c-0.19-0.88-0.37-1.77-0.57-2.62c-0.1-0.47-0.24-0.95-0.4-1.4c-0.45-1.68-0.99-3.35-1.61-4.92
										c-0.75-1.88-1.62-3.69-2.58-5.45c-0.46-0.83-0.98-1.64-1.49-2.45c-0.02-0.05-0.06-0.07-0.08-0.12
										c0.63,3.71,1.13,7.31,1.58,10.73c0.48,3.86,0.78,7.55,0.99,11.04c0.11,2.3,0.18,4.58,0.18,6.75c0.01,0.39,0,0.72-0.01,1.06
										c0,1.23-0.05,2.49-0.08,3.67c-0.02,0.16-0.01,0.34-0.04,0.5c-0.06,1.38-0.18,2.69-0.28,3.96c-0.28,3.03-0.7,5.88-1.28,8.52
										c-0.38-0.84-0.75-1.67-1.13-2.51c-3.28-7.36-7.39-13.86-12.05-19.62c-27.14-33.45-73.84-40.88-103.75-28.21
										c17.4-0.43,28.68,0.04,33.92,1.45c-5.96-0.18-11.35,1.63-16.02,5.51c15.47-2.34,26.87-1.95,34.25,1.46
										c-8.74-0.44-15.26,1.32-19.52,5.25c19.77-1.45,34.1,1.22,43.08,8.05c-11.72-4.14-21.91-4.46-30.61-1.01
										c19.67,3.82,33.74,8.85,42.19,15.21c-11.29-3.53-20.52-4.22-27.7-2.1c16.6,3.23,27.92,8.23,33.98,15.12
										c-8.57-3.22-16.9-3.83-24.93-1.8c10.18,2.82,24.97,7.13,29.08,15.25c-28.22-9.96-52.64-18.61-77.19,3.05
										c4.8-1.83,6.75-3.57,12.34-5.04c-2.65,1.07-6.11,5.29-6.7,7.13c4.8-4.09,10.27-6.41,15.47-7.78
										c-2.7,1.48-5.03,4.03-7.11,7.72c4.95-4.75,10.39-6.91,17.34-6.75c-2.64,1.45-5.18,3.97-7.58,7.82
										c5.17-3.85,11.68-5.82,19.42-6.02c-3.08,1.27-5.85,3.65-8.35,7.12c6.28-3.86,12.79-5.32,19.66-4.26
										c-4.36,0.78-7.77,2.64-10.37,5.73c8.43-3.22,15.83-3.42,22.15-0.63c-3.65-0.62-7.5,0.46-11.53,3
										c6.74-0.99,11.97-0.47,15.75,1.69c-2.85-0.5-5.54,0.13-8.1,1.91c3.21-0.88,6.6-0.54,10.28,1.04
										c-30.4,2.05-57.49,46.76-49.05,82.14c0.27-0.95,5.46-24.73,11.53-33.73c0.99,7.55,2.88,12.63,5.52,15.17
										c-1.53-7.27-1.1-15.68,1.32-25.21c0.21,5.53,1.47,10.81,3.74,15.79c-0.85-7.37,1.56-17.38,7.16-30.06
										c-0.96,7.55-1.33,14.58-1.22,19.86c1.2-8.22,5.51-17.48,12.94-27.92c-2.76,5.62-4.19,12.55-4.29,20.88
										c1.63-8.55,6.7-16.56,15.13-23.86c-2.02,2.61-3.13,6.73-3.37,12.42c0.3-0.43,3.35-5.92,9.74-11.39
										c2.94-2.57,6.65-5.06,11.12-7.12c0.54-0.28,1.06-0.5,1.69-0.7c0,0,0.73,0.3,1.74,1.15c0.12,0.13,0.28,0.24,0.45,0.36
										c0.41,0.25,0.71,0.55,1.09,0.96c2.66,2.51,6.26,7.15,7.47,14.58c0.05-0.32,0.26-1.34,0.52-2.8
										c0.02-0.04,0.02-0.04,0.02-0.04s0,0,0.02-0.04c0.28-2.31,0.47-5.54-0.09-9.01c5.88,5.5,10.83,15.08,11.7,21.39
										c0.89-6.14,0.88-12.26-0.15-18.38c10.01,9.17,13.94,20.49,11.84,34.07c3.68-5.79,5.6-11.96,5.8-18.59
										c5.17,12.94,5.7,24.47,1.73,34.47c4.89-6.98,7.86-13.11,8.8-18.24c2.34,10.24,1.49,20.6-2.69,31.07
										c4.64-6.07,7.2-11.81,7.82-17.12c0.38,6.36,0.13,12.38-0.83,17.98c-0.66,3.64-1.56,7.13-2.77,10.46
										c0.72-0.09-0.75,0.16,0,0c2.19-1.92,5.24-5.26,6.46-7.69c0.24,2.1,0.2,4.33-0.08,6.85l0.08,8.22
										c2.06-7.43,6.32-23.34,6.58-30.33l0.03-0.07c1.29-29.95-13.99-55.42-53.55-65.5c7.76-1.29,17.37,1.98,26.53,5.74
										c-0.86-2.23-3.28-4.89-7.22-7.71c9.22,1.45,15.49,4.98,18.75,10.46c0.68-2.05-0.65-5.71-3.9-11.1
										c9.72,4.33,15.68,10.67,17.75,18.8c1.14-3.57,0.85-8.4-0.92-14.58c9.26,6.56,14.82,14.48,16.81,23.64
										c0.6-5.75,0.4-11.31-0.71-16.53c7.16,6.5,10.73,13.89,10.82,22.17c1.89-4.15,2.15-9.48,0.85-15.97
										c1.58,1.93,3.93,5.37,6.15,9.05c2.55,4.2,4.85,8.69,5.56,11.4C732.3,985.31,731.41,980.06,729.64,975.41z"/>
								</g>
							</g>
						</g>
					</g>
					<path class="st5" d="M673.5,1077.43c-0.89-0.29-1.85-0.62-2.84-1.03C671.61,1076.73,672.57,1077.08,673.5,1077.43z"/>
					<path class="st5" d="M1430.77,1271.7c-4.79,5.97-10.27,11.29-16.04,16.22l-4.35,3.66c-1.48,1.18-3.02,2.29-4.53,3.43
						c-2.97,2.35-6.16,4.39-9.31,6.47c-12.68,8.21-26.3,14.81-40.42,19.88l-10.66,3.59c-3.6,1.03-7.26,1.9-10.87,2.86l-5.43,1.4
						l-5.53,0.99l-11.04,1.99l-11.17,1.19c-3.72,0.37-7.41,0.97-11.17,0.97l-11.22,0.4c-1.87,0.06-3.74,0.16-5.6,0.18l-5.59-0.14
						c-14.9-0.39-29.72-2.21-44.43-4.96c-14.71-2.78-29.3-6.6-43.89-10.75c-29.18-8.29-58.66-17.34-88.85-24.06
						c-30.19-6.65-60.98-10.91-91.84-12.85l-11.58-0.47c-3.86-0.13-7.72-0.37-11.58-0.35c-7.72-0.02-15.44-0.29-23.16-0.03
						c-7.71,0.16-15.43,0.23-23.12,0.73l-11.54,0.66c-3.85,0.21-7.68,0.62-11.51,0.92c-7.67,0.65-15.34,1.26-22.97,2.21
						c-7.64,0.9-15.29,1.61-22.88,2.85c-7.59,1.17-15.21,2.14-22.77,3.48l-22.67,3.96c-30.1,5.94-59.93,12.98-89.37,21.35
						c30.21-5,60.32-10.01,90.57-13.81l22.69-2.66c7.56-0.92,15.15-1.46,22.72-2.2c7.57-0.76,15.15-1.22,22.72-1.8
						c7.57-0.64,15.15-0.95,22.73-1.28c3.79-0.15,7.58-0.41,11.37-0.46l11.37-0.2c7.57-0.25,15.14-0.17,22.71-0.14
						c7.57-0.08,15.12,0.37,22.68,0.57c3.78,0.07,7.55,0.4,11.32,0.62l11.31,0.73c30.11,2.35,60.02,6.59,89.47,13.34
						c14.77,3.2,29.45,6.89,44.11,10.89c14.68,3.97,29.33,8.31,44.23,12.16c14.89,3.86,29.99,7.44,45.38,9.97
						c3.83,0.7,7.71,1.2,11.58,1.69c1.94,0.24,3.87,0.54,5.82,0.72l5.85,0.49c1.95,0.14,3.9,0.34,5.85,0.44l5.87,0.21l5.87,0.19
						l5.88-0.08l5.87-0.08c1.95-0.09,3.9-0.28,5.84-0.41l11.67-0.88c3.89-0.17,7.74-0.93,11.61-1.47c3.86-0.58,7.71-1.19,11.55-1.84
						l11.39-2.7l5.69-1.35l5.58-1.76c3.71-1.2,7.44-2.31,11.12-3.59l10.84-4.37c14.23-6.3,27.86-13.96,40.11-23.44
						C1411.19,1295.49,1422.45,1284.61,1430.77,1271.7z"/>
					<path class="st5" d="M1141.57,1072.93c4.93-6.01,10.56-11.34,16.46-16.29l4.46-3.67c1.52-1.18,3.1-2.29,4.64-3.44
						c3.04-2.35,6.3-4.39,9.53-6.46c12.97-8.2,26.87-14.74,41.26-19.73l10.86-3.53c3.67-1.01,7.39-1.85,11.07-2.78l5.53-1.36
						l5.63-0.94l11.24-1.89l11.35-1.08c3.78-0.33,7.54-0.9,11.35-0.86l11.4-0.28c1.9-0.04,3.8-0.12,5.69-0.12l5.67,0.21
						c15.12,0.56,30.15,2.58,45.05,5.53c14.91,2.99,29.67,7.03,44.44,11.41c29.54,8.74,59.36,18.27,89.93,25.42
						c30.58,7.09,61.79,11.76,93.1,14.08l11.76,0.61c3.92,0.17,7.83,0.46,11.76,0.49c7.84,0.1,15.68,0.47,23.51,0.29
						c7.83-0.08,15.67-0.06,23.48-0.48l11.72-0.54c3.91-0.17,7.8-0.54,11.7-0.81c7.8-0.57,15.59-1.11,23.35-1.99
						c7.76-0.83,15.55-1.46,23.26-2.64c7.72-1.11,15.47-2,23.16-3.28l23.06-3.77c30.63-5.7,61-12.5,90.98-20.68
						c-30.72,4.74-61.35,9.49-92.11,13.01l-23.07,2.45c-7.68,0.85-15.4,1.31-23.09,1.98c-7.69,0.69-15.4,1.06-23.09,1.57
						c-7.69,0.56-15.4,0.79-23.09,1.05c-3.85,0.11-7.7,0.33-11.54,0.34l-11.54,0.07c-7.69,0.17-15.38,0-23.06-0.11
						c-7.69,0-15.35-0.55-23.02-0.83c-3.84-0.12-7.66-0.49-11.48-0.75l-11.47-0.87c-30.54-2.72-60.86-7.36-90.69-14.54
						c-14.95-3.42-29.82-7.33-44.67-11.55c-14.86-4.19-29.69-8.76-44.77-12.85c-15.08-4.09-30.37-7.89-45.97-10.63
						c-3.88-0.75-7.81-1.31-11.74-1.85c-1.97-0.26-3.92-0.59-5.9-0.8l-5.94-0.56c-1.98-0.17-3.95-0.39-5.94-0.51l-5.96-0.27
						l-5.96-0.26l-5.97,0.02l-5.96,0.02c-1.98,0.07-3.96,0.24-5.94,0.35l-11.85,0.77c-3.96,0.13-7.87,0.86-11.8,1.36
						c-3.92,0.55-7.84,1.12-11.75,1.74l-11.6,2.61l-5.79,1.31l-5.69,1.73c-3.78,1.18-7.58,2.26-11.33,3.52l-11.05,4.31
						c-14.51,6.24-28.44,13.86-40.98,23.35C1161.71,1049,1150.16,1059.92,1141.57,1072.93z"/>
					<g>
						<g>
							<g>
								<path class="st8" d="M1244.49,854.29l2.64,7.61c1.32-0.47,2.76-0.82,4.21-1.16c3.11-0.65,6.47-1.04,10-1.02
									c0.23,0.01,0.48,0.05,0.64,0.06l0.06,0l0.12-8.08l-0.77,0c-4.14-0.02-8.1,0.36-11.75,1.18
									C1247.84,853.29,1246.1,853.75,1244.49,854.29z M1277.41,861.97c1.51,0.37,3,0.74,4.5,1.24c3.46,1.17,6.99,2.44,10.44,3.96
									l3.34-7.28c-3.76-1.78-7.59-3.16-11.34-4.4c-1.67-0.48-3.34-0.98-4.89-1.35l-0.06,0L1277.41,861.97z M1308.56,872.42
									c1.29,0.68,2.69,1.48,4.2,2.41c2.97,1.72,6.37,3.73,10.14,5.87l4.08-6.92l-0.06,0c-3.95-2.36-7.29-4.26-10.08-5.86
									c-1.52-0.93-2.91-1.74-4.26-2.54L1308.56,872.42z M1336.66,889l4.17,2.66c2.87,1.76,5.73,3.57,8.64,5.39l1.31,0.84l0-0.06
									l4.25-6.86c-3.21-1.99-6.45-3.99-9.6-5.98l-4.48-2.79L1336.66,889z M1363.7,907.66l0.06,0c0.8,0.6,1.65,1.25,2.47,1.77
									l1.43,1.05c2.41,1.7,4.88,3.41,7.13,4.98l2.47,1.79l4.66-6.62l-9.66-6.83c-1.33-0.86-2.6-1.77-3.9-2.7L1363.7,907.66z"/>
							</g>
							<g>
								<path class="st8" d="M1332.83,830.37l0.42,5.54c0.96-0.04,1.98-0.1,3.06-0.03c2.16,0.05,4.46,0.46,6.83,1.13
									c0.12,0,0.31,0.05,0.48,0.1l1.53-5.37c-0.25-0.05-0.37-0.09-0.5-0.14c-2.79-0.76-5.52-1.22-8.16-1.31
									c-1.2-0.05-2.47-0.06-3.6,0.08L1332.83,830.37z M1353.51,841.32l0.04-0.02c0.88,0.5,1.8,1.04,2.74,1.67
									c2.17,1.32,4.27,2.83,6.29,4.46l3.54-4.28c-2.18-1.8-4.49-3.48-6.84-4.91c-1-0.67-1.98-1.28-3.05-1.82L1353.51,841.32z
									 M1370.54,855.15c0.71,0.75,1.46,1.53,2.35,2.45c1.6,1.72,3.44,3.72,5.53,5.88l4.07-3.81c-2.23-2.28-4.01-4.22-5.53-5.88
									c-0.83-0.91-1.6-1.72-2.35-2.45L1370.54,855.15z M1386.25,871.89l2.29,2.45c1.58,1.72,3.24,3.43,4.84,5.19l0.69,0.74
									l4.11-3.81c-1.84-1.94-3.62-3.89-5.41-5.77l-2.41-2.64l-0.06,0L1386.25,871.89z M1401.95,888.62l0,0.04
									c0.51,0.47,0.97,1.04,1.48,1.55l0.81,0.85c1.4,1.49,2.81,3.02,4.09,4.47l1.46,1.47l4.04-3.81l-5.59-6
									c-0.71-0.81-1.48-1.6-2.23-2.4L1401.95,888.62z"/>
							</g>
							<path class="st5" d="M1449.28,963.1c-7.04-10.2-14.74-19.87-22.74-29.33c-7.98-9.47-16.36-18.61-25.07-27.45
								c-8.67-8.89-17.88-17.24-27.26-25.44c-4.79-3.97-9.61-7.92-14.53-11.76l-7.5-5.6l-3.76-2.8c-1.27-0.91-2.58-1.76-3.87-2.65
								c-5.18-3.5-10.27-7.15-15.67-10.36l-8-4.98c-2.74-1.59-5.54-3.14-8.35-4.65c-11.38-5.8-23.81-10.29-36.99-11.62
								c-6.57-0.63-13.28-0.57-19.87,0.53c-6.56,1.14-13.03,3.1-18.9,6.2c-11.73,6.16-21.26,15.95-26.17,27.69l1.09,0.57
								c7.7-9.48,17.81-16.46,28.56-20.33c10.85-3.82,22.42-4.26,33.7-2.45c11.32,1.8,22.42,5.71,33.3,10.4
								c2.71,1.22,5.4,2.48,8.1,3.79l8.02,4.26c5.42,2.72,10.54,6,15.73,9.16c20.6,12.92,39.87,28.12,58.09,44.49
								c9.14,8.16,18,16.67,26.51,25.54c2.16,2.19,4.24,4.44,6.34,6.7c2.11,2.24,4.16,4.52,6.21,6.82
								c4.12,4.56,8.17,9.21,12.02,13.99L1449.28,963.1z"/>
							<path class="st5" d="M1460.23,942.24c-3.66-9.32-7.94-18.36-12.49-27.28c-4.54-8.92-9.44-17.67-14.67-26.23
								c-10.56-17.05-22.33-33.46-35.89-48.47c-3.41-3.73-6.74-7.55-10.42-11.05l-5.38-5.39c-1.86-1.76-3.78-3.49-5.72-5.2
								c-7.89-6.66-16.84-12.49-26.97-15.97c-5.07-1.67-10.35-2.87-15.73-3.25c-5.38-0.31-10.83,0.03-16.02,1.4
								c-10.37,2.68-19.67,8.64-25.7,16.97l0.75,0.65c7.81-6.04,17.05-9.67,26.23-10.73c9.24-0.97,18.44,0.73,26.98,4.29
								c8.58,3.51,16.59,8.63,24.29,14.33c1.91,1.46,3.79,2.95,5.67,4.48l5.52,4.84c3.74,3.16,7.17,6.68,10.69,10.11
								c13.89,13.92,26.26,29.44,37.51,45.73c11.39,16.21,21.56,33.37,30.41,51.17L1460.23,942.24z"/>
							<path class="st5" d="M1192.43,893.5c0,0,0,0,0.02,0.02c0.04,0.04,0.1,0.13,0.22,0.28c2.46,3.03,22.65,29.3,20.19,68.79
								c-0.45,7.24-1.66,14.93-3.88,22.98c-1.65,5.95-3.81,12.07-6.65,18.38c3.3-1.54,6.66-3.01,10.13-4.44l11.96-4.48l0.38-0.14
								c2.66-0.85,5.36-1.63,8.06-2.4c1.36-0.4,2.72-0.81,4.15-1.23l6.32-1.8l18.91-4l0.27-0.03c4.17-0.6,8.36-1.16,12.64-1.7
								c1.08-0.12,2.19-0.26,3.27-0.4c3.15-0.42,6.38-0.84,9.81-0.92l14.55-0.72c1.44-0.09,2.87-0.16,4.31-0.18l13.05,0.12
								l6.48,0.39l6.39,0.39c1.47,0.1,2.9,0.26,4.36,0.42l8.5,0.92c1.45,0.16,2.9,0.41,4.35,0.63c0.68,0.1,1.39,0.22,2.11,0.32
								c4.31,0.67,8.55,1.32,12.65,2.19c18.19,3.45,35.73,8.25,48.97,12.03c9.45,2.69,18.88,5.61,28.02,8.41
								c6.35,1.97,12.69,3.91,19.04,5.8c13.12,3.92,25.22,7.32,36.77,10.29l-7.8-5.62C1467.82,1003.35,1340.94,923.49,1192.43,893.5
								z M1376.17,975.22c0.09-3.61,3.11-6.49,6.73-6.38c3.64,0.09,6.49,3.11,6.4,6.75c-0.08,2.22-1.23,4.15-2.94,5.29
								c-1.08,0.74-2.4,1.15-3.81,1.11c-3.14-0.12-5.72-2.39-6.29-5.35C1376.16,976.18,1376.15,975.7,1376.17,975.22z
								 M1330.68,958.8c0.01-0.44,0.04-0.89,0.14-1.33c0.77-4.26,4.53-7.45,9-7.28c4.9,0.14,8.75,4.23,8.63,9.11
								c-0.05,1.83-0.65,3.5-1.64,4.89c-1.64,2.35-4.4,3.84-7.49,3.74C1334.42,967.79,1330.53,963.7,1330.68,958.8z M1284.7,941.77
								c0.03-1.23,0.29-2.38,0.73-3.43c1.51-3.91,5.34-6.6,9.74-6.45c5.63,0.14,10.06,4.83,9.92,10.46
								c-0.03,1.39-0.36,2.69-0.91,3.91c-1.63,3.62-5.35,6.12-9.61,5.98C1288.98,952.06,1284.56,947.38,1284.7,941.77z
								 M1228.37,924.98c0.09-3.53,1.56-6.74,3.89-9.05c2.49-2.52,6-4.05,9.85-3.93c7.33,0.23,13.08,6.25,12.99,13.55l-0.01,0.21
								c-0.2,7.35-6.36,13.19-13.75,12.98C1233.98,938.53,1228.15,932.35,1228.37,924.98z"/>
						</g>
						<path class="st8" d="M1128.12,857.32c0,0,0.02,0.02,0.06,0.04c0.04,0.02,0.08,0.06,0.2,0.15c0.08,0.09,0.18,0.15,0.31,0.28
							c3.77,3.17,25.96,22.58,43.67,53.54c0.04,0.04,0.06,0.08,0.06,0.13c6.32,11.78,11.59,25.19,14.3,39.9
							c1.03,5.47,1.72,11.12,1.93,16.95c0.61,14.71-1.53,30.48-7.68,47c2.09-1.28,4.22-2.53,6.41-3.75
							c7.26-14.97,13.68-35.1,12.77-58.43c-0.85-22.37-8.47-47.67-28.62-74.18c-0.04-0.02-0.06-0.04-0.08-0.06
							c159.51,24.51,283.06,101.4,286.87,103.8c0.08,0.04,0.1,0.07,0.1,0.07c13.47,6.57,25.98,14.45,37.11,23.23
							c3.04,2.36,5.97,4.79,8.8,7.29C1490.76,998.94,1380.61,890.62,1128.12,857.32z"/>
					</g>
					<g>
						<path class="st5" d="M2265.88,1092.29c0-4.26-2.84-5.07-5.47-5.07c-20.06,0-63.62,35.86-63.62,53.49
							c0,0.41-0.4,0.41-0.81,0.41c-5.27,0-16.01-14.39-16.01-24.52c0-6.89,17.22-24.92,38.7-34.04c14.18-5.67,24.52-7.09,36.27-7.09
							c14.99,0,32.82,12.97,32.82,34.04c0,27.15-95.64,112.86-113.87,124.82c46.4-3.85,90.98,4.05,96.85,6.28
							c0.81,0.41,0.61,1.62,0.61,2.63c0,1.82-0.61,3.44-1.62,3.85c-5.07-1.42-20.67-2.23-38.5-2.23c-31,0-62,2.23-90.98,10.94
							c-0.2,0-0.2,0-0.41,0c-4.46,0-11.95-14.18-11.95-20.67c0-1.22,0.2-2.23,1.01-2.63
							C2167.21,1217.71,2265.88,1122.28,2265.88,1092.29z"/>
					</g>
				</g>
				<g>
					<g>
						<path class="st5" d="M2180.96,1093.12c-0.29,0.24-0.57,0.48-0.86,0.68c-1.48,0.98-2.98,1.95-4.49,2.88L2180.96,1093.12z"/>
						<path class="st5" d="M2219.97,1022.19c-3.81,16.5-11.29,31.43-19.73,45.13c-0.63-1.79,0.63-4.1,1.49-6.51
							c5.06-13.98,10.46-27.87,12.47-42.74c0.94-6.92,0.91-13.78-1.12-20.55c-2.29-7.61-6.66-8.88-12.28-3.48
							c-5.49,5.28-8.81,12.16-13.5,18.11c2.91-10.25,8.3-18.98,16.44-25.81c6.05-5.07,11.09-3.75,14.32,3.52
							C2222.73,1000.35,2222.49,1011.27,2219.97,1022.19z"/>
					</g>
					<path class="st5" d="M2215.33,1078.72c-2.13,1.97-4.69,3.56-7.53,3.69c-4.85,0.23-8.74,1.85-12.08,4.29
						c-0.04,0.04-0.09,0.07-0.14,0.11c-1.83,1.35-3.5,2.95-5.07,4.69c-4.3,4.6-8.15,10.17-10.54,13.87
						c-1.49,2.29-2.4,3.87-2.51,4.06c0.21-1.16,0.8-2.77,1.59-4.6c2.88-6.57,8.45-15.84,8.67-16.21l-5.44,3.62l-0.02,0.01
						c-0.48,0.19-0.89,0.52-1.29,0.87l-5.34,3.56l-0.01,0l-0.01,0.01c-6.02,3.74-12.29,7-19.22,8.87
						c-6.54,1.77-12.95,1.85-18.95-2.12c-8.95-5.94-10.86-14.45-4.89-23.36c5.89-8.78,14.44-13.73,25.17-16.27
						c-9.39-7.01-18.07-13.97-25.16-22.68c-8.9-10.94-14.5-23.06-14.17-37.5c0.33-14.18,7.58-20.85,21.61-19.85
						c12.43,0.89,21.66,7.34,29.2,16.61c12.99,15.97,19.42,34.89,23.95,54.58c1.34,5.84,2.22,11.79,3.4,18.16
						c10.79-3.5,15.36-11.52,17.5-22.3c1.77,11.13-7.2,22.73-20.95,27.66c-0.56-10.7-3.06-20.93-5.83-31.1
						c-3.53-12.91-8.19-25.34-15.83-36.45c-6.83-9.95-15.48-17.54-27.48-20.65c-10.54-2.72-16.31,0.82-18.54,11.55
						c-2,9.56,0.53,18.29,5.23,26.55c6.98,12.26,17.07,21.7,27.72,30.65c2.16,1.82,4.23,3.74,6.82,6.02
						c-3.68,0.97-7.17,1.75-10.57,2.81c-4.24,1.31-8.39,2.9-11.98,5.65c-5.09,3.88-6.91,8.45-5.46,13.89
						c1.74,6.5,5.76,9.99,12.3,10.76c6.59,0.78,12.65-1.25,18.64-3.52c12.02-4.56,22.84-11.37,33.49-18.43
						c3.28-2.18,6.68-4.11,10.68-4.47c1.96-0.18,4.1-0.12,5.11,1.99C2218.45,1075.99,2216.75,1077.41,2215.33,1078.72z"/>
				</g>
			</g>
			<path class="st5" d="M1152.58,1080.07c0,0,73.75-100.99,237.43-39.82C1390.01,1040.25,1253.51,988.54,1152.58,1080.07z"/>
		</g>
		<g>
			<linearGradient id="SVGID_8_" gradientUnits="userSpaceOnUse" x1="1462.8207" y1="1240.1964" x2="1462.8207" y2="1354.6216">
				<stop  offset="0" style="stop-color:#FFF33B"/>
				<stop  offset="0.0401" style="stop-color:#FEE72E"/>
				<stop  offset="0.1171" style="stop-color:#FED51B"/>
				<stop  offset="0.1964" style="stop-color:#FDCA10"/>
				<stop  offset="0.2809" style="stop-color:#FDC70C"/>
				<stop  offset="0.6685" style="stop-color:#F3903F"/>
				<stop  offset="0.8876" style="stop-color:#ED683C"/>
				<stop  offset="1" style="stop-color:#E93E3A"/>
			</linearGradient>
			<path class="st9" d="M1454.16,1296.33c-2.58,0-3.9,1.22-3.9,3.65v3.43h0.92c0-3.5,1.91-5.24,5.71-5.24h4.1v28.27h4.1v-28.27
				h10.28v-1.84H1454.16z"/>
			<linearGradient id="SVGID_9_" gradientUnits="userSpaceOnUse" x1="1503.796" y1="1240.1964" x2="1503.796" y2="1354.6216">
				<stop  offset="0" style="stop-color:#FFF33B"/>
				<stop  offset="0.0401" style="stop-color:#FEE72E"/>
				<stop  offset="0.1171" style="stop-color:#FED51B"/>
				<stop  offset="0.1964" style="stop-color:#FDCA10"/>
				<stop  offset="0.2809" style="stop-color:#FDC70C"/>
				<stop  offset="0.6685" style="stop-color:#F3903F"/>
				<stop  offset="0.8876" style="stop-color:#ED683C"/>
				<stop  offset="1" style="stop-color:#E93E3A"/>
			</linearGradient>
			<path class="st10" d="M1514.13,1324.22c-0.89-0.75-1.91-2.06-3.03-3.92l-4.79-8c4.87-1.12,7.3-3.7,7.3-7.75
				c0-3.2-1.19-5.37-3.55-6.51c-2.33-1.14-4.97-1.71-7.85-1.71h-11.87v0.92h0.92c1.27,0,2.14,0.37,2.56,1.12
				c0.42,0.75,0.62,1.89,0.62,3.45v24.62h4.12v-13.91h3.18l4.57,7.78c1.47,2.48,2.78,4.2,4,5.17c1.19,0.97,2.61,1.44,4.22,1.44
				c0.55,0,1.07-0.05,1.56-0.15c0.5-0.07,0.89-0.2,1.17-0.32v-0.89C1516.07,1325.42,1515.02,1324.97,1514.13,1324.22z
				 M1505.04,1310.24c-1.09,0.47-2.14,0.7-3.08,0.7c-1.04,0-2.19-0.15-3.4-0.45v-12.1c1.22-0.3,2.36-0.45,3.4-0.45
				c0.94,0,1.99,0.22,3.08,0.7c1.12,0.47,2.06,1.19,2.83,2.19c0.79,0.99,1.17,2.24,1.17,3.73c0,1.39-0.37,2.58-1.17,3.55
				C1507.1,1309.07,1506.16,1309.79,1505.04,1310.24z"/>
			<linearGradient id="SVGID_10_" gradientUnits="userSpaceOnUse" x1="1546.0508" y1="1240.1964" x2="1546.0508" y2="1354.6216">
				<stop  offset="0" style="stop-color:#FFF33B"/>
				<stop  offset="0.0401" style="stop-color:#FEE72E"/>
				<stop  offset="0.1171" style="stop-color:#FED51B"/>
				<stop  offset="0.1964" style="stop-color:#FDCA10"/>
				<stop  offset="0.2809" style="stop-color:#FDC70C"/>
				<stop  offset="0.6685" style="stop-color:#F3903F"/>
				<stop  offset="0.8876" style="stop-color:#ED683C"/>
				<stop  offset="1" style="stop-color:#E93E3A"/>
			</linearGradient>
			<path class="st11" d="M1557.78,1324.37c-0.67-0.65-1.39-1.86-2.16-3.63l-10.04-24.42h-1.37l-12.77,30.11h2.06l3.65-8.64h12.77
				l1.14,2.96c0.84,2.34,1.99,3.92,3.43,4.72c1.42,0.79,2.86,1.22,4.32,1.22c0.67,0,1.27-0.07,1.84-0.25v-0.89
				C1559.39,1325.42,1558.45,1325.02,1557.78,1324.37z M1537.83,1315.95l5.71-13.24l5.47,13.24H1537.83z"/>
			<linearGradient id="SVGID_11_" gradientUnits="userSpaceOnUse" x1="1583.3866" y1="1240.1964" x2="1583.3866" y2="1354.6216">
				<stop  offset="0" style="stop-color:#FFF33B"/>
				<stop  offset="0.0401" style="stop-color:#FEE72E"/>
				<stop  offset="0.1171" style="stop-color:#FED51B"/>
				<stop  offset="0.1964" style="stop-color:#FDCA10"/>
				<stop  offset="0.2809" style="stop-color:#FDC70C"/>
				<stop  offset="0.6685" style="stop-color:#F3903F"/>
				<stop  offset="0.8876" style="stop-color:#ED683C"/>
				<stop  offset="1" style="stop-color:#E93E3A"/>
			</linearGradient>
			<path class="st12" d="M1595.96,1296.33c-3.63,8.69-6.06,14.53-7.35,17.49l-2.68,6.24l-7.8-18.38c-0.97-2.31-2.16-3.85-3.55-4.62
				c-1.42-0.79-2.86-1.17-4.4-1.17c-0.3,0-0.6,0-0.87,0.05c-0.3,0.02-0.52,0.05-0.67,0.05v0.89c1.24,0.12,2.21,0.52,2.88,1.17
				c0.67,0.65,1.37,1.86,2.14,3.63l10.58,25.24h0.82l13.09-30.58H1595.96z"/>
			<linearGradient id="SVGID_12_" gradientUnits="userSpaceOnUse" x1="1626.0015" y1="1240.1964" x2="1626.0015" y2="1354.6216">
				<stop  offset="0" style="stop-color:#FFF33B"/>
				<stop  offset="0.0401" style="stop-color:#FEE72E"/>
				<stop  offset="0.1171" style="stop-color:#FED51B"/>
				<stop  offset="0.1964" style="stop-color:#FDCA10"/>
				<stop  offset="0.2809" style="stop-color:#FDC70C"/>
				<stop  offset="0.6685" style="stop-color:#F3903F"/>
				<stop  offset="0.8876" style="stop-color:#ED683C"/>
				<stop  offset="1" style="stop-color:#E93E3A"/>
			</linearGradient>
			<path class="st13" d="M1637.52,1319.6c-0.7,1.81-1.64,3.11-2.81,3.88c-1.19,0.77-2.83,1.14-4.94,1.14h-7.97v-12.77h12.32v-1.84
				h-12.32v-11.85h8.47c3.8,0,5.71,1.74,5.71,5.24h0.92v-3.43c0-2.43-1.29-3.65-3.88-3.65h-19.45v0.92h0.92
				c1.27,0,2.14,0.37,2.56,1.12c0.42,0.75,0.62,1.89,0.62,3.45v24.62h15.75c1.74,0,2.88-0.75,3.43-2.26l1.59-4.35L1637.52,1319.6z"
				/>
			<linearGradient id="SVGID_13_" gradientUnits="userSpaceOnUse" x1="1666.3806" y1="1240.1964" x2="1666.3806" y2="1354.6216">
				<stop  offset="0" style="stop-color:#FFF33B"/>
				<stop  offset="0.0401" style="stop-color:#FEE72E"/>
				<stop  offset="0.1171" style="stop-color:#FED51B"/>
				<stop  offset="0.1964" style="stop-color:#FDCA10"/>
				<stop  offset="0.2809" style="stop-color:#FDC70C"/>
				<stop  offset="0.6685" style="stop-color:#F3903F"/>
				<stop  offset="0.8876" style="stop-color:#ED683C"/>
				<stop  offset="1" style="stop-color:#E93E3A"/>
			</linearGradient>
			<path class="st14" d="M1662.38,1324.62v-22.8c0-1.57-0.1-2.71-0.35-3.48c-0.25-0.77-0.65-1.29-1.22-1.57
				c-0.57-0.3-1.42-0.45-2.53-0.45h-4.1v0.92h0.92c1.27,0,2.11,0.37,2.53,1.12c0.45,0.75,0.65,1.89,0.65,3.45v24.62h20.3v-1.81
				H1662.38z"/>
			<linearGradient id="SVGID_14_" gradientUnits="userSpaceOnUse" x1="1725.8624" y1="1240.1964" x2="1725.8624" y2="1354.6216">
				<stop  offset="0" style="stop-color:#FFF33B"/>
				<stop  offset="0.0401" style="stop-color:#FEE72E"/>
				<stop  offset="0.1171" style="stop-color:#FED51B"/>
				<stop  offset="0.1964" style="stop-color:#FDCA10"/>
				<stop  offset="0.2809" style="stop-color:#FDC70C"/>
				<stop  offset="0.6685" style="stop-color:#F3903F"/>
				<stop  offset="0.8876" style="stop-color:#ED683C"/>
				<stop  offset="1" style="stop-color:#E93E3A"/>
			</linearGradient>
			<path class="st15" d="M1729.05,1325.54c-1.29,0-2.14-0.37-2.56-1.12c-0.42-0.75-0.65-1.89-0.65-3.45v-24.64h-4.1v24.64
				c0,1.56,0.12,2.71,0.37,3.48c0.25,0.75,0.65,1.27,1.19,1.57c0.57,0.3,1.42,0.42,2.53,0.42h4.12v-0.89H1729.05z"/>
			<linearGradient id="SVGID_15_" gradientUnits="userSpaceOnUse" x1="1756.7897" y1="1240.1964" x2="1756.7897" y2="1354.6216">
				<stop  offset="0" style="stop-color:#FFF33B"/>
				<stop  offset="0.0401" style="stop-color:#FEE72E"/>
				<stop  offset="0.1171" style="stop-color:#FED51B"/>
				<stop  offset="0.1964" style="stop-color:#FDCA10"/>
				<stop  offset="0.2809" style="stop-color:#FDC70C"/>
				<stop  offset="0.6685" style="stop-color:#F3903F"/>
				<stop  offset="0.8876" style="stop-color:#ED683C"/>
				<stop  offset="1" style="stop-color:#E93E3A"/>
			</linearGradient>
			<path class="st16" d="M1765.47,1314.71c-0.87-1.04-2.31-2.21-4.4-3.45l-5.61-3.33c-1.81-1.09-3.11-2.06-3.9-2.88
				c-0.77-0.82-1.17-1.86-1.17-3.11c0-1.37,0.55-2.48,1.61-3.33c1.07-0.84,2.29-1.27,3.7-1.27c2.61,0,4.65,0.65,6.09,1.99
				c1.44,1.32,2.41,3.5,2.93,6.53h0.82V1301c0-1.09-0.5-2.06-1.47-2.91c-0.99-0.84-2.26-1.47-3.78-1.91
				c-1.52-0.45-3.06-0.67-4.6-0.67c-2.66,0-4.79,0.72-6.43,2.14c-1.61,1.42-2.43,3.28-2.43,5.61c0,1.71,0.4,3.15,1.22,4.35
				c0.79,1.19,2.19,2.36,4.12,3.5l5.61,3.33c1.76,1.04,3.03,2.04,3.83,2.98s1.19,2.04,1.19,3.33c0,1.47-0.6,2.61-1.76,3.43
				c-1.17,0.82-2.56,1.22-4.22,1.22c-2.61,0-4.67-0.67-6.16-2.01c-1.49-1.37-2.48-3.55-3.01-6.61h-0.82v4.89
				c0,1.09,0.52,2.06,1.54,2.91c1.02,0.84,2.34,1.52,3.95,1.96c1.61,0.47,3.25,0.7,4.92,0.7c2.93,0,5.24-0.77,6.93-2.31
				c1.71-1.54,2.56-3.58,2.56-6.14C1766.74,1317.14,1766.32,1315.78,1765.47,1314.71z"/>
			<linearGradient id="SVGID_16_" gradientUnits="userSpaceOnUse" x1="1828.6299" y1="1240.1964" x2="1828.6299" y2="1354.6216">
				<stop  offset="0" style="stop-color:#FFF33B"/>
				<stop  offset="0.0401" style="stop-color:#FEE72E"/>
				<stop  offset="0.1171" style="stop-color:#FED51B"/>
				<stop  offset="0.1964" style="stop-color:#FDCA10"/>
				<stop  offset="0.2809" style="stop-color:#FDC70C"/>
				<stop  offset="0.6685" style="stop-color:#F3903F"/>
				<stop  offset="0.8876" style="stop-color:#ED683C"/>
				<stop  offset="1" style="stop-color:#E93E3A"/>
			</linearGradient>
			<path class="st17" d="M1842.6,1325.27c-0.72-1.57-1.09-3.75-1.09-6.58v-22.36h-4.1l-10.71,23.72l-10.95-23.72h-4.35v30.11h1.84
				v-25.76l11.85,25.76h0.92l11.4-25.31v17.56c0,2.38,0.25,4.27,0.75,5.69c0.52,1.42,1.37,2.46,2.58,3.13
				c1.22,0.67,2.93,0.99,5.12,0.99v-0.92C1844.39,1327.58,1843.3,1326.81,1842.6,1325.27z"/>
			<linearGradient id="SVGID_17_" gradientUnits="userSpaceOnUse" x1="1873.6168" y1="1240.1964" x2="1873.6168" y2="1354.6216">
				<stop  offset="0" style="stop-color:#FFF33B"/>
				<stop  offset="0.0401" style="stop-color:#FEE72E"/>
				<stop  offset="0.1171" style="stop-color:#FED51B"/>
				<stop  offset="0.1964" style="stop-color:#FDCA10"/>
				<stop  offset="0.2809" style="stop-color:#FDC70C"/>
				<stop  offset="0.6685" style="stop-color:#F3903F"/>
				<stop  offset="0.8876" style="stop-color:#ED683C"/>
				<stop  offset="1" style="stop-color:#E93E3A"/>
			</linearGradient>
			<path class="st18" d="M1886.15,1296.33l-9.54,15.3l-6.61-10.28c-0.99-1.54-1.99-2.76-3.03-3.68c-1.02-0.89-2.31-1.34-3.83-1.34
				h-4.1v0.92c1.02,0.05,1.91,0.32,2.66,0.75c0.75,0.45,1.39,0.99,1.94,1.61c0.55,0.65,1.22,1.54,2.01,2.66l7.75,11.72v12.45h4.12
				v-12.77l10.66-17.34H1886.15z"/>
			<linearGradient id="SVGID_18_" gradientUnits="userSpaceOnUse" x1="1941.2467" y1="1240.1964" x2="1941.2467" y2="1354.6216">
				<stop  offset="0" style="stop-color:#FFF33B"/>
				<stop  offset="0.0401" style="stop-color:#FEE72E"/>
				<stop  offset="0.1171" style="stop-color:#FED51B"/>
				<stop  offset="0.1964" style="stop-color:#FDCA10"/>
				<stop  offset="0.2809" style="stop-color:#FDC70C"/>
				<stop  offset="0.6685" style="stop-color:#F3903F"/>
				<stop  offset="0.8876" style="stop-color:#ED683C"/>
				<stop  offset="1" style="stop-color:#E93E3A"/>
			</linearGradient>
			<path class="st19" d="M1952.45,1313.42c-1.09-1.19-3.06-2.04-5.86-2.48c2.01-0.67,3.5-1.59,4.47-2.73
				c0.99-1.17,1.47-2.46,1.47-3.88c0-3.13-1.22-5.27-3.68-6.36c-2.43-1.09-5.32-1.64-8.64-1.64h-11.85v0.92h0.92
				c1.27,0,2.11,0.37,2.53,1.12c0.42,0.75,0.65,1.89,0.65,3.45v24.62h9.12c3.53,0,6.51-0.6,8.92-1.79c2.43-1.19,3.65-3.33,3.65-6.41
				C1954.14,1316.22,1953.57,1314.61,1952.45,1313.42z M1936.55,1298.39c1.22-0.3,2.36-0.45,3.43-0.45c1.32,0,2.58,0.2,3.85,0.65
				c1.27,0.45,2.31,1.12,3.13,2.06c0.82,0.92,1.24,2.06,1.24,3.43c0,1.32-0.35,2.43-1.04,3.35c-0.72,0.94-1.61,1.64-2.73,2.11
				c-1.12,0.47-2.29,0.7-3.53,0.7h-4.35V1298.39z M1947.31,1323.2c-1.52,1.09-3.65,1.64-6.41,1.64c-1.44,0-2.88-0.2-4.35-0.65
				v-12.12h4.35c2.83,0,4.97,0.55,6.46,1.64c1.47,1.09,2.21,2.68,2.21,4.74C1949.57,1320.52,1948.82,1322.11,1947.31,1323.2z"/>
			<linearGradient id="SVGID_19_" gradientUnits="userSpaceOnUse" x1="1983.5015" y1="1240.1964" x2="1983.5015" y2="1354.6216">
				<stop  offset="0" style="stop-color:#FFF33B"/>
				<stop  offset="0.0401" style="stop-color:#FEE72E"/>
				<stop  offset="0.1171" style="stop-color:#FED51B"/>
				<stop  offset="0.1964" style="stop-color:#FDCA10"/>
				<stop  offset="0.2809" style="stop-color:#FDC70C"/>
				<stop  offset="0.6685" style="stop-color:#F3903F"/>
				<stop  offset="0.8876" style="stop-color:#ED683C"/>
				<stop  offset="1" style="stop-color:#E93E3A"/>
			</linearGradient>
			<path class="st20" d="M1995.38,1296.33v17.12c0,2.76-0.3,4.99-0.87,6.66c-0.57,1.69-1.54,2.93-2.91,3.75
				c-1.34,0.82-3.18,1.22-5.49,1.22c-2.88,0-4.97-0.87-6.21-2.58c-1.24-1.74-1.86-4.3-1.86-7.68v-12.99c0-1.57-0.12-2.71-0.37-3.48
				c-0.25-0.77-0.65-1.29-1.19-1.57c-0.57-0.3-1.42-0.45-2.53-0.45h-4.12v0.92h0.92c1.27,0,2.14,0.37,2.56,1.12
				c0.42,0.75,0.65,1.89,0.65,3.45v11.63c0,3.11,0.35,5.64,1.07,7.58c0.72,1.94,1.91,3.4,3.63,4.4c1.69,0.99,4,1.49,6.93,1.49
				c3.03,0,5.42-0.5,7.1-1.47c1.69-0.97,2.86-2.43,3.53-4.35c0.67-1.94,0.99-4.5,0.99-7.65v-17.12H1995.38z"/>
			<linearGradient id="SVGID_20_" gradientUnits="userSpaceOnUse" x1="2026.8615" y1="1240.1964" x2="2026.8615" y2="1354.6216">
				<stop  offset="0" style="stop-color:#FFF33B"/>
				<stop  offset="0.0401" style="stop-color:#FEE72E"/>
				<stop  offset="0.1171" style="stop-color:#FED51B"/>
				<stop  offset="0.1964" style="stop-color:#FDCA10"/>
				<stop  offset="0.2809" style="stop-color:#FDC70C"/>
				<stop  offset="0.6685" style="stop-color:#F3903F"/>
				<stop  offset="0.8876" style="stop-color:#ED683C"/>
				<stop  offset="1" style="stop-color:#E93E3A"/>
			</linearGradient>
			<path class="st21" d="M2035.52,1314.71c-0.84-1.04-2.31-2.21-4.37-3.45l-5.61-3.33c-1.84-1.09-3.13-2.06-3.9-2.88
				c-0.77-0.82-1.17-1.86-1.17-3.11c0-1.37,0.52-2.48,1.59-3.33c1.07-0.84,2.31-1.27,3.7-1.27c2.61,0,4.65,0.65,6.09,1.99
				c1.47,1.32,2.43,3.5,2.96,6.53h0.82V1301c0-1.09-0.5-2.06-1.49-2.91c-0.99-0.84-2.24-1.47-3.75-1.91
				c-1.54-0.45-3.06-0.67-4.62-0.67c-2.63,0-4.77,0.72-6.41,2.14c-1.61,1.42-2.43,3.28-2.43,5.61c0,1.71,0.4,3.15,1.19,4.35
				c0.82,1.19,2.19,2.36,4.15,3.5l5.61,3.33c1.76,1.04,3.03,2.04,3.83,2.98c0.8,0.94,1.19,2.04,1.19,3.33c0,1.47-0.6,2.61-1.76,3.43
				c-1.17,0.82-2.58,1.22-4.22,1.22c-2.61,0-4.67-0.67-6.16-2.01c-1.49-1.37-2.48-3.55-3.01-6.61h-0.82v4.89
				c0,1.09,0.5,2.06,1.52,2.91c1.02,0.84,2.34,1.52,3.95,1.96c1.61,0.47,3.25,0.7,4.94,0.7c2.91,0,5.22-0.77,6.93-2.31
				c1.69-1.54,2.56-3.58,2.56-6.14C2036.81,1317.14,2036.36,1315.78,2035.52,1314.71z"/>
			<linearGradient id="SVGID_21_" gradientUnits="userSpaceOnUse" x1="2060.6204" y1="1240.1964" x2="2060.6204" y2="1354.6216">
				<stop  offset="0" style="stop-color:#FFF33B"/>
				<stop  offset="0.0401" style="stop-color:#FEE72E"/>
				<stop  offset="0.1171" style="stop-color:#FED51B"/>
				<stop  offset="0.1964" style="stop-color:#FDCA10"/>
				<stop  offset="0.2809" style="stop-color:#FDC70C"/>
				<stop  offset="0.6685" style="stop-color:#F3903F"/>
				<stop  offset="0.8876" style="stop-color:#ED683C"/>
				<stop  offset="1" style="stop-color:#E93E3A"/>
			</linearGradient>
			<path class="st22" d="M2063.81,1325.54c-1.29,0-2.14-0.37-2.56-1.12c-0.42-0.75-0.65-1.89-0.65-3.45v-24.64h-4.1v24.64
				c0,1.56,0.12,2.71,0.37,3.48c0.25,0.75,0.65,1.27,1.19,1.57c0.57,0.3,1.42,0.42,2.53,0.42h4.12v-0.89H2063.81z"/>
			<linearGradient id="SVGID_22_" gradientUnits="userSpaceOnUse" x1="2093.0503" y1="1240.1964" x2="2093.0503" y2="1354.6216">
				<stop  offset="0" style="stop-color:#FFF33B"/>
				<stop  offset="0.0401" style="stop-color:#FEE72E"/>
				<stop  offset="0.1171" style="stop-color:#FED51B"/>
				<stop  offset="0.1964" style="stop-color:#FDCA10"/>
				<stop  offset="0.2809" style="stop-color:#FDC70C"/>
				<stop  offset="0.6685" style="stop-color:#F3903F"/>
				<stop  offset="0.8876" style="stop-color:#ED683C"/>
				<stop  offset="1" style="stop-color:#E93E3A"/>
			</linearGradient>
			<path class="st23" d="M2104.7,1296.33v22.58l-15.97-19.85c-0.77-0.89-1.64-1.59-2.61-2.04c-0.97-0.47-2.16-0.7-3.55-0.7h-2.98
				v0.92h0.47c1.49,0,2.53,0.4,3.18,1.19c0.62,0.79,0.92,1.91,0.92,3.38v24.62h1.84v-23.95l19.6,24.42h0.92v-30.58H2104.7z"/>
			<linearGradient id="SVGID_23_" gradientUnits="userSpaceOnUse" x1="2137.2549" y1="1240.1964" x2="2137.2549" y2="1354.6216">
				<stop  offset="0" style="stop-color:#FFF33B"/>
				<stop  offset="0.0401" style="stop-color:#FEE72E"/>
				<stop  offset="0.1171" style="stop-color:#FED51B"/>
				<stop  offset="0.1964" style="stop-color:#FDCA10"/>
				<stop  offset="0.2809" style="stop-color:#FDC70C"/>
				<stop  offset="0.6685" style="stop-color:#F3903F"/>
				<stop  offset="0.8876" style="stop-color:#ED683C"/>
				<stop  offset="1" style="stop-color:#E93E3A"/>
			</linearGradient>
			<path class="st24" d="M2148.77,1319.6c-0.7,1.81-1.64,3.11-2.83,3.88c-1.19,0.77-2.83,1.14-4.92,1.14h-8v-12.77h12.32v-1.84
				h-12.32v-11.85h8.5c3.8,0,5.71,1.74,5.71,5.24h0.89v-3.43c0-2.43-1.29-3.65-3.88-3.65h-19.43v0.92h0.89
				c1.29,0,2.14,0.37,2.56,1.12c0.42,0.75,0.65,1.89,0.65,3.45v24.62h15.75c1.71,0,2.86-0.75,3.4-2.26l1.61-4.35L2148.77,1319.6z"/>
			<linearGradient id="SVGID_24_" gradientUnits="userSpaceOnUse" x1="2177.1001" y1="1240.1964" x2="2177.1001" y2="1354.6216">
				<stop  offset="0" style="stop-color:#FFF33B"/>
				<stop  offset="0.0401" style="stop-color:#FEE72E"/>
				<stop  offset="0.1171" style="stop-color:#FED51B"/>
				<stop  offset="0.1964" style="stop-color:#FDCA10"/>
				<stop  offset="0.2809" style="stop-color:#FDC70C"/>
				<stop  offset="0.6685" style="stop-color:#F3903F"/>
				<stop  offset="0.8876" style="stop-color:#ED683C"/>
				<stop  offset="1" style="stop-color:#E93E3A"/>
			</linearGradient>
			<path class="st25" d="M2185.76,1314.71c-0.84-1.04-2.31-2.21-4.37-3.45l-5.61-3.33c-1.81-1.09-3.13-2.06-3.9-2.88
				c-0.77-0.82-1.17-1.86-1.17-3.11c0-1.37,0.55-2.48,1.62-3.33c1.07-0.84,2.29-1.27,3.68-1.27c2.63,0,4.65,0.65,6.11,1.99
				c1.44,1.32,2.41,3.5,2.93,6.53h0.82V1301c0-1.09-0.5-2.06-1.47-2.91c-0.99-0.84-2.26-1.47-3.78-1.91
				c-1.51-0.45-3.06-0.67-4.62-0.67c-2.63,0-4.77,0.72-6.41,2.14c-1.61,1.42-2.43,3.28-2.43,5.61c0,1.71,0.4,3.15,1.22,4.35
				c0.79,1.19,2.19,2.36,4.12,3.5l5.61,3.33c1.76,1.04,3.03,2.04,3.83,2.98c0.8,0.94,1.19,2.04,1.19,3.33c0,1.47-0.6,2.61-1.76,3.43
				c-1.17,0.82-2.58,1.22-4.22,1.22c-2.61,0-4.67-0.67-6.16-2.01c-1.49-1.37-2.48-3.55-3.01-6.61h-0.82v4.89
				c0,1.09,0.52,2.06,1.54,2.91c1.02,0.84,2.34,1.52,3.95,1.96c1.59,0.47,3.25,0.7,4.92,0.7c2.91,0,5.22-0.77,6.93-2.31
				c1.71-1.54,2.56-3.58,2.56-6.14C2187.05,1317.14,2186.63,1315.78,2185.76,1314.71z"/>
			<linearGradient id="SVGID_25_" gradientUnits="userSpaceOnUse" x1="2215.1069" y1="1240.1964" x2="2215.1069" y2="1354.6216">
				<stop  offset="0" style="stop-color:#FFF33B"/>
				<stop  offset="0.0401" style="stop-color:#FEE72E"/>
				<stop  offset="0.1171" style="stop-color:#FED51B"/>
				<stop  offset="0.1964" style="stop-color:#FDCA10"/>
				<stop  offset="0.2809" style="stop-color:#FDC70C"/>
				<stop  offset="0.6685" style="stop-color:#F3903F"/>
				<stop  offset="0.8876" style="stop-color:#ED683C"/>
				<stop  offset="1" style="stop-color:#E93E3A"/>
			</linearGradient>
			<path class="st26" d="M2223.79,1314.71c-0.87-1.04-2.34-2.21-4.4-3.45l-5.61-3.33c-1.81-1.09-3.13-2.06-3.9-2.88
				c-0.77-0.82-1.17-1.86-1.17-3.11c0-1.37,0.55-2.48,1.61-3.33c1.07-0.84,2.29-1.27,3.68-1.27c2.63,0,4.65,0.65,6.11,1.99
				c1.44,1.32,2.41,3.5,2.93,6.53h0.82V1301c0-1.09-0.5-2.06-1.47-2.91c-0.99-0.84-2.26-1.47-3.78-1.91
				c-1.52-0.45-3.06-0.67-4.62-0.67c-2.63,0-4.77,0.72-6.41,2.14c-1.61,1.42-2.43,3.28-2.43,5.61c0,1.71,0.4,3.15,1.22,4.35
				c0.79,1.19,2.19,2.36,4.12,3.5l5.61,3.33c1.76,1.04,3.03,2.04,3.83,2.98c0.8,0.94,1.19,2.04,1.19,3.33c0,1.47-0.6,2.61-1.76,3.43
				c-1.17,0.82-2.56,1.22-4.22,1.22c-2.61,0-4.67-0.67-6.16-2.01c-1.49-1.37-2.48-3.55-3.01-6.61h-0.82v4.89
				c0,1.09,0.52,2.06,1.54,2.91c1.02,0.84,2.34,1.52,3.95,1.96c1.59,0.47,3.25,0.7,4.92,0.7c2.91,0,5.22-0.77,6.93-2.31
				c1.71-1.54,2.56-3.58,2.56-6.14C2225.06,1317.14,2224.63,1315.78,2223.79,1314.71z"/>
		</g>
	</g>
	<g>
		<g>
			<linearGradient id="SVGID_26_" gradientUnits="userSpaceOnUse" x1="990.3423" y1="588.1861" x2="1762.4519" y2="1060.0995">
				<stop  offset="0" style="stop-color:#FFF33B"/>
				<stop  offset="0.0401" style="stop-color:#FEE72E"/>
				<stop  offset="0.1171" style="stop-color:#FED51B"/>
				<stop  offset="0.1964" style="stop-color:#FDCA10"/>
				<stop  offset="0.2809" style="stop-color:#FDC70C"/>
				<stop  offset="0.6685" style="stop-color:#F3903F"/>
				<stop  offset="0.8876" style="stop-color:#ED683C"/>
				<stop  offset="1" style="stop-color:#E93E3A"/>
			</linearGradient>
			<path class="st27" d="M1570.71,1039.06c-5.42-0.58-10.74-1.26-16.07-1.94c9.1-259.54-245.32-348.18-304.73-365.41
				C1545.93,752.62,1573.22,953.9,1570.71,1039.06z"/>
			
				<linearGradient id="SVGID_27_" gradientUnits="userSpaceOnUse" x1="3472.2246" y1="512.7557" x2="2650.083" y2="953.8412" gradientTransform="matrix(-1 0 0 1 4422.0229 0)">
				<stop  offset="0" style="stop-color:#FFF33B"/>
				<stop  offset="0.0401" style="stop-color:#FEE72E"/>
				<stop  offset="0.1171" style="stop-color:#FED51B"/>
				<stop  offset="0.1964" style="stop-color:#FDCA10"/>
				<stop  offset="0.2809" style="stop-color:#FDC70C"/>
				<stop  offset="0.6685" style="stop-color:#F3903F"/>
				<stop  offset="0.8876" style="stop-color:#ED683C"/>
				<stop  offset="1" style="stop-color:#E93E3A"/>
			</linearGradient>
			<path class="st28" d="M1237.45,668.33c3.07,0.79,6.12,1.59,9.13,2.4C1241.15,669.2,1237.93,668.44,1237.45,668.33z"/>
			<path class="st5" d="M1223.47,673.5c8.19,3.48,24.15,9.84,24.15,9.84l2.05,9.6c0,0-1.79,1.23-1.66,3.1
				c0.12,1.87,2.81,3.9,2.81,3.9l3.62,14.57l6.29,1.79l3.05-18.63l10.79-7.29l34.24,8.04l2.18,9.66l1.9-0.2l7.13-7.25l5.79-0.47
				l-0.08-3.53l14.32-9.12l-0.61-3.03l-20.13,3.01l-0.6-6.36l-3.95,1.01l-8.46,5.85l-15.09-6.6l0.09-3.85l10.24-6.7l35.94-13.39
				l-0.67-2.81l-2.31-1.6l-39.52,8.83l-3.96-1.83c-3.69-1.71-8.02,0.32-9.07,4.24l-26.52,3.32l-27.9-13.22
				c0,0-11.09-0.08-18.17,2.74C1202.26,659.94,1215.29,670.01,1223.47,673.5z"/>
		</g>
		
			<linearGradient id="SVGID_28_" gradientUnits="userSpaceOnUse" x1="3505.7256" y1="575.1983" x2="2683.584" y2="1016.2839" gradientTransform="matrix(-1 0 0 1 4422.0229 0)">
			<stop  offset="0" style="stop-color:#FFF33B"/>
			<stop  offset="0.0401" style="stop-color:#FEE72E"/>
			<stop  offset="0.1171" style="stop-color:#FED51B"/>
			<stop  offset="0.1964" style="stop-color:#FDCA10"/>
			<stop  offset="0.2809" style="stop-color:#FDC70C"/>
			<stop  offset="0.6685" style="stop-color:#F3903F"/>
			<stop  offset="0.8876" style="stop-color:#ED683C"/>
			<stop  offset="1" style="stop-color:#E93E3A"/>
		</linearGradient>
		<path class="st29" d="M1542.33,994.06c-0.15-6.46-0.78-12.92-1.63-19.34c-0.86-6.42-1.97-12.81-3.25-19.16
			c-2.63-12.7-6.08-25.23-10.27-37.52c-4.15-12.31-9.15-24.33-14.71-36.08l-4.35-8.73c-1.52-2.87-3.1-5.71-4.65-8.57l-1.17-2.14
			c-0.4-0.71-0.82-1.4-1.23-2.1l-2.48-4.2l-2.48-4.2c-0.86-1.38-1.75-2.74-2.63-4.11c-13.97-21.95-30.75-42.08-49.56-59.98
			c-18.94-17.77-39.9-33.34-62.38-46.12c21.44,14.45,41.55,30.68,59.82,48.75c8.94,9.22,17.8,18.53,25.7,28.66l3.04,3.73l2.9,3.84
			l2.9,3.84c0.96,1.28,1.96,2.54,2.86,3.87l5.5,7.89c0.94,1.3,1.78,2.67,2.65,4.01l2.6,4.05c13.89,21.57,25.27,44.74,34.22,68.82
			c1.16,3,2.19,6.04,3.23,9.08c1.08,3.03,2,6.11,2.99,9.17l0.73,2.3l0.68,2.31l1.36,4.63c0.86,3.1,1.69,6.21,2.49,9.33
			C1538.34,968.56,1540.94,981.21,1542.33,994.06z"/>
	</g>
</g>
</svg>
